<?xml version="1.0" encoding="UTF-8"?>
<svg version="1.1" xmlns="http://www.w3.org/2000/svg" width="7800" height="1363">
<path d="M0 0 C6.41550806 2.46641763 12.39198083 5.85527074 18.42041016 9.13232422 C19.85572516 9.90464656 21.29127455 10.67653347 22.72705078 11.44799805 C33.9658199 17.5042791 45.08400021 23.75578202 56.10791016 30.19482422 C57.97233879 31.27842377 59.83692807 32.36174695 61.70166016 33.44482422 C73.92595688 40.55422859 86.11957843 47.71629182 98.31762695 54.87060547 C108.93419343 61.09673039 119.56359591 67.30068973 130.19726562 73.49755859 C133.13851855 75.2126727 136.07847031 76.92999716 139.01806641 78.64794922 C149.36456682 84.69295253 159.72480524 90.71288376 170.10791016 96.69482422 C181.47531835 103.24384396 192.81354627 109.84162277 204.14013672 116.4609375 C209.12781967 119.37493259 214.11796788 122.28470026 219.10791016 125.19482422 C225.08567806 128.68104603 231.06297005 132.16806644 237.03759766 135.65966797 C247.37774544 141.70049115 257.73138478 147.71667438 268.10791016 153.69482422 C279.47531835 160.24384396 290.81354627 166.84162277 302.14013672 173.4609375 C307.12781967 176.37493259 312.11796788 179.28470026 317.10791016 182.19482422 C323.08567806 185.68104603 329.06297005 189.16806644 335.03759766 192.65966797 C345.31323573 198.66259481 355.60429579 204.63670209 365.92041016 210.56982422 C374.8566119 215.7114477 383.74696628 220.92461884 392.60791016 226.19482422 C405.70529083 233.98329685 418.89368565 241.60673461 432.10791016 249.19482422 C445.28201127 256.75987351 458.42912621 264.36106435 471.48291016 272.13232422 C484.28970256 279.75601768 497.21031692 287.16842565 510.17138672 294.52587891 C513.48668628 296.41009804 516.79725563 298.30245587 520.10791016 300.19482422 C520.13254913 345.28217863 520.08658074 390.36873243 519.94587797 435.45586874 C519.92855654 441.02211151 519.91193167 446.58835608 519.89567375 452.15460205 C519.89328513 452.97238679 519.8908965 453.79017153 519.88843549 454.63273762 C519.88603213 455.45574243 519.88362876 456.27874723 519.88115257 457.12669158 C519.77803615 492.4359432 519.66300142 527.74514309 519.535743 563.05431581 C519.48663041 576.691632 519.43851888 590.32895179 519.39058752 603.96627218 C519.37463076 608.50427451 519.35859235 613.04227652 519.34237337 617.58027792 C519.18286312 662.24031221 519.08056226 706.89929233 519.12432786 751.55961071 C519.13401753 761.51241593 519.13574674 771.46518847 519.129776 781.41799927 C519.12864708 783.31103458 519.12864708 783.31103458 519.12749535 785.24231303 C519.12347449 791.42888809 519.11832628 797.61546098 519.1122942 803.80203438 C519.10135288 816.70471073 519.11842124 829.60676982 519.17135936 842.50934434 C519.20457449 851.14090048 519.20649639 859.77208156 519.18236703 868.40366721 C519.16980845 873.28585061 519.17184928 878.16684743 519.21423149 883.04888916 C519.25234858 887.44596953 519.24991347 891.8410143 519.21401489 896.23809648 C519.20846931 897.81703746 519.21818915 899.39612079 519.24466908 900.97484946 C519.429856 912.70502618 519.429856 912.70502618 516.13685608 916.41615009 C513.84429449 917.97370142 511.65402493 919.11478541 509.10791016 920.19482422 C507.61710937 921.09575806 507.61710937 921.09575806 506.09619141 922.01489258 C505.21318359 922.51641846 504.33017578 923.01794434 503.42041016 923.53466797 C502.40527344 924.11474609 501.39013672 924.69482422 500.34423828 925.29248047 C499.27625 925.89962891 498.20826172 926.50677734 497.10791016 927.13232422 C488.21403844 932.22319457 479.37946152 937.39464778 470.60791016 942.69482422 C461.08699596 948.44379563 451.48623899 954.03700123 441.83837891 959.56982422 C434.37552972 963.85984531 426.97695588 968.24582947 419.60791016 972.69482422 C410.17549359 978.38710571 400.67349947 983.94350273 391.11962891 989.42919922 C382.92179285 994.13880229 374.75849987 998.90417138 366.60791016 1003.69482422 C357.42400718 1009.0921835 348.21886772 1014.44927845 338.98291016 1019.75732422 C330.18988868 1024.81160698 321.44710912 1029.94339478 312.73291016 1035.13232422 C302.34613798 1041.3147656 291.88774588 1047.35548462 281.38232422 1053.33300781 C273.88987228 1057.59731846 266.42397291 1061.90393639 258.98291016 1066.25732422 C247.47922366 1072.98697605 235.93867602 1079.65138187 224.39013672 1086.30371094 C220.04373875 1088.80796552 215.69880743 1091.31475774 211.35400391 1093.82177734 C208.10287537 1095.69772937 204.85148642 1097.57322951 201.60009766 1099.44873047 C197.29189364 1101.93413324 192.98468226 1104.42124399 188.67822266 1106.90966797 C176.91625073 1113.70420515 165.13960411 1120.47215509 153.3409729 1127.20278931 C144.8506894 1132.046348 136.38014229 1136.92305584 127.92041016 1141.81982422 C118.44591104 1147.30185677 108.91575053 1152.67544164 99.35229492 1158.00048828 C92.30167641 1161.93710667 85.31765467 1165.97504058 78.35791016 1170.06982422 C66.56776854 1176.99649591 54.60769768 1183.5953505 42.61791992 1190.16687012 C37.13940475 1193.17179238 31.6790399 1196.20877408 26.22143555 1199.25146484 C21.80883823 1201.7095987 17.38935954 1204.15522539 12.97021484 1206.6015625 C10.41637965 1208.02311901 7.87381554 1209.46245076 5.33447266 1210.90966797 C4.00920165 1211.65100017 2.68370615 1212.39193131 1.35791016 1213.13232422 C-0.24310547 1214.04304688 -0.24310547 1214.04304688 -1.87646484 1214.97216797 C-6.35875132 1216.78946805 -9.65991825 1217.08000375 -14.23095703 1215.26733398 C-17.00187903 1213.92851174 -19.69561712 1212.49039565 -22.39208984 1211.00732422 C-23.906698 1210.19473145 -23.906698 1210.19473145 -25.4519043 1209.36572266 C-28.60982867 1207.66170265 -31.75314694 1205.93353549 -34.89208984 1204.19482422 C-35.83745605 1203.67130371 -36.78282227 1203.1477832 -37.75683594 1202.60839844 C-43.45881041 1199.43550125 -49.13125521 1196.21249092 -54.79345703 1192.96923828 C-58.0763344 1191.08931764 -61.36283877 1189.21585229 -64.64990234 1187.34326172 C-78.28056672 1179.57442073 -91.88240081 1171.75609497 -105.46630859 1163.90576172 C-109.75727463 1161.42601512 -114.05166821 1158.95237378 -118.34912109 1156.48388672 C-130.54733196 1149.47235291 -142.68724555 1142.37218657 -154.77978516 1135.17993164 C-164.66086872 1129.31134411 -174.60995817 1123.56554601 -184.57177734 1117.83544922 C-194.70699097 1112.00406064 -204.79954254 1106.09964382 -214.89208984 1100.19482422 C-216.02517578 1099.53224609 -217.15826172 1098.86966797 -218.32568359 1098.18701172 C-231.47412624 1090.49756117 -244.6067066 1082.78262936 -257.70458984 1075.00732422 C-267.99451805 1068.89909673 -278.31646799 1062.84847617 -288.65771484 1056.82763672 C-295.61791919 1052.77460454 -302.56860542 1048.70540579 -309.51708984 1044.63232422 C-310.44421783 1044.08887863 -310.44421783 1044.08887863 -311.39007568 1043.53445435 C-320.11012225 1038.42209765 -328.81838592 1033.2901225 -337.5168457 1028.14111328 C-345.02499025 1023.69965637 -352.55137045 1019.28961775 -360.07958984 1014.88232422 C-370.6455774 1008.69640869 -381.18762932 1002.47177809 -391.71582031 996.22167969 C-400.64666106 990.92367911 -409.60071712 985.66618977 -418.56201172 980.41992188 C-426.34848395 975.86133377 -434.12769082 971.29094997 -441.89208984 966.69482422 C-450.23434658 961.75777569 -458.59093248 956.84549659 -466.95458984 951.94482422 C-467.56279572 951.58843872 -468.17100159 951.23205322 -468.79763794 950.86486816 C-473.16213043 948.30763222 -477.52706288 945.75114772 -481.89208984 943.19482422 C-486.87155318 940.27866373 -491.85077288 937.36208814 -496.82958984 934.44482422 C-497.72928497 933.91773865 -497.72928497 933.91773865 -498.64715576 933.38000488 C-507.90240824 927.95714015 -517.14420466 922.51180537 -526.37036133 917.03955078 C-527.20639893 916.54422852 -528.04243652 916.04890625 -528.90380859 915.53857422 C-529.63043701 915.10738281 -530.35706543 914.67619141 -531.10571289 914.23193359 C-532.34516793 913.51234838 -533.61020009 912.83576909 -534.89208984 912.19482422 C-534.89208984 709.90482422 -534.89208984 507.61482422 -534.89208984 299.19482422 C-526.97208984 295.23482422 -526.97208984 295.23482422 -518.89208984 291.19482422 C-514.86970991 289.01603509 -510.87159368 286.82267422 -506.89208984 284.56982422 C-505.83159424 283.97282715 -504.77109863 283.37583008 -503.6784668 282.76074219 C-495.44890328 278.11261356 -487.27742184 273.36792497 -479.12451172 268.58691406 C-471.41186094 264.06695948 -463.65954474 259.61955886 -455.89208984 255.19482422 C-446.17066 249.65529318 -436.4831368 244.06107235 -426.82519531 238.41137695 C-416.3012436 232.2571568 -405.73828847 226.17112426 -395.17431641 220.0859375 C-389.74549046 216.95802276 -384.31886978 213.82628691 -378.89208984 210.69482422 C-372.3697571 206.93118502 -365.84695222 203.168378 -359.32177734 199.40966797 C-347.83902087 192.79341305 -336.37248083 186.15092411 -324.93066406 179.46411133 C-316.50639645 174.5443114 -308.05655088 169.66960284 -299.60302734 164.80029297 C-292.35257444 160.62133264 -285.11725121 156.41734433 -277.89208984 152.19482422 C-266.34486498 145.44769308 -254.76306865 138.76143051 -243.17431641 132.0859375 C-237.74549042 128.95802274 -232.31889703 125.82623974 -226.89208984 122.69482422 C-224.72543402 121.44480543 -222.55876735 120.19480543 -220.39208984 118.94482422 C-219.31958984 118.32607422 -218.24708984 117.70732422 -217.14208984 117.06982422 C-213.89208984 115.19482422 -210.64208984 113.31982422 -207.39208984 111.44482422 C-205.78358154 110.51682007 -205.78358154 110.51682007 -204.14257812 109.57006836 C-201.9743272 108.31917942 -199.80603288 107.0683657 -197.63769531 105.81762695 C-192.24491069 102.70684087 -186.85286891 99.59478184 -181.46240234 96.47998047 C-167.40296836 88.35810292 -153.31844878 80.28102486 -139.21604919 72.23406982 C-135.04529053 69.85394364 -130.87644239 67.47049637 -126.70849609 65.08544922 C-106.93349142 53.77078304 -87.11297885 42.5400636 -67.22509766 31.42480469 C-62.17942592 28.60313989 -57.13939634 25.77253063 -52.11474609 22.91357422 C-7.59992735 -2.40979951 -7.59992735 -2.40979951 0 0 Z M5.10791016 83.19482422 C4.19038098 85.94741175 3.92957131 87.82264077 3.81100464 90.67912292 C3.77191545 91.59609357 3.73282627 92.51306421 3.69255257 93.45782185 C3.655436 94.4618212 3.61831944 95.46582056 3.58007812 96.50024414 C3.53881742 97.56188121 3.49755672 98.62351828 3.4550457 99.71732616 C2.69238061 120.47895693 2.50395762 141.2575466 2.35222054 162.03123188 C2.29613683 169.53445404 2.21489583 177.03572101 2.07226562 184.5378418 C1.94636193 191.16159891 1.8677389 197.78400688 1.84408939 204.40894669 C1.83019305 207.88889346 1.79512105 211.36522462 1.70285416 214.84404945 C1.29341121 232.34009309 2.79924231 243.97206255 14.55237961 257.40285301 C16.71209718 259.89084767 18.60640199 262.5325464 20.54541016 265.19482422 C41.71070649 290.13826088 78.19792268 306.08564357 106.10791016 322.19482422 C107.15688477 322.80036133 108.20585938 323.40589844 109.28662109 324.02978516 C113.65523543 326.55069478 118.02426487 329.07087309 122.39526367 331.58764648 C128.67687997 335.2064088 134.94357665 338.84917642 141.19775391 342.51513672 C151.31681787 348.44562624 161.50066313 354.24144567 171.75048828 359.94287109 C178.94646347 363.95558 186.07027277 368.07777374 193.17041016 372.25732422 C204.02543873 378.63135866 215.02432492 384.70034846 226.13769531 390.61132812 C229.1066907 392.1941741 232.06634393 393.79359304 235.02587891 395.39404297 C259.63880849 408.59872998 286.23943754 421.67761967 314.60009766 413.14404297 C333.93832509 406.66685919 351.64196651 395.47463891 369.02929688 385.02978516 C372.42973954 383.00300267 375.84623161 381.00550382 379.26806641 379.01513672 C393.04834609 370.99654873 406.73870403 362.88874805 420.10791016 354.19482422 C420.92984863 353.66453613 421.75178711 353.13424805 422.59863281 352.58789062 C425.10781187 350.96599327 427.60914276 349.33270753 430.10791016 347.69482422 C430.86869873 347.20199951 431.6294873 346.7091748 432.41333008 346.20141602 C435.93534456 343.86752184 438.87676602 341.89015669 441.10791016 338.19482422 C434.5907788 331.71301607 427.37613877 327.08724903 419.46630859 322.55078125 C416.85223388 321.0478236 414.2491042 319.52695743 411.64697266 318.00341797 C407.5732478 315.61915348 403.49642289 313.24034944 399.41650391 310.86669922 C395.32309967 308.48512803 391.23176944 306.10008249 387.14306641 303.71044922 C375.72287024 297.03694614 364.28094427 290.40266176 352.81933594 283.80053711 C345.56868978 279.62154799 338.33322836 275.41743599 331.10791016 271.19482422 C319.56068529 264.44769308 307.97888896 257.76143051 296.39013672 251.0859375 C289.87919759 247.33454398 283.37127822 243.57791428 276.86279297 239.82226562 C271.42205679 236.68300176 265.98059539 233.54500925 260.53759766 230.40966797 C249.05484119 223.79341305 237.58830115 217.15092411 226.14648438 210.46411133 C218.81478537 206.18237505 211.46508034 201.93262415 204.10791016 197.69482422 C194.76927809 192.31568342 185.45150698 186.90222975 176.14697266 181.46435547 C168.81507292 177.182603 161.46523778 172.93271483 154.10791016 168.69482422 C144.76927809 163.31568342 135.45150698 157.90222975 126.14697266 152.46435547 C117.72108714 147.54372679 109.26992171 142.66766838 100.81445312 137.7980957 C93.60538966 133.64356539 86.41450723 129.45911939 79.23291016 125.25732422 C67.72063437 118.52692431 56.14673743 111.90643464 44.5602417 105.30505371 C40.14235928 102.7871302 35.72981872 100.25998823 31.31884766 97.72998047 C29.4072486 96.63439164 27.49556969 95.53894228 25.5838623 94.44354248 C24.36390422 93.74409609 23.14425152 93.04411676 21.92492676 92.34356689 C20.2289702 91.36930776 18.53174475 90.39725848 16.83447266 89.42529297 C15.38935303 88.5961438 15.38935303 88.5961438 13.91503906 87.75024414 C11.01825363 86.14514587 8.07999182 84.65504952 5.10791016 83.19482422 Z M-23.05615234 86.32763672 C-23.91829346 86.79669434 -24.78043457 87.26575195 -25.66870117 87.74902344 C-26.60866943 88.2673877 -27.5486377 88.78575195 -28.51708984 89.31982422 C-29.49766357 89.85752441 -30.4782373 90.39522461 -31.48852539 90.94921875 C-39.64238688 95.44732136 -47.68788882 100.12002029 -55.71484375 104.83984375 C-62.89019897 109.05149034 -70.1214942 113.15007468 -77.39208984 117.19482422 C-86.54798568 122.29215495 -95.62654472 127.5056746 -104.66601562 132.80639648 C-112.33695717 137.30033858 -120.04366405 141.72941832 -127.76708984 146.13232422 C-140.09257767 153.16044322 -152.3893134 160.23723023 -164.67431641 167.3359375 C-170.0787963 170.45807027 -175.48556397 173.57623626 -180.89208984 176.69482422 C-183.05876735 177.94480543 -185.22543402 179.19480543 -187.39208984 180.44482422 C-252.39208984 217.94482422 -252.39208984 217.94482422 -255.64257812 219.82006836 C-257.80766055 221.0691794 -259.97269967 222.31836551 -262.13769531 223.56762695 C-267.5782469 226.70684731 -273.019562 229.84472985 -278.46240234 232.97998047 C-289.94515881 239.59623539 -301.41169885 246.23872432 -312.85351562 252.92553711 C-321.27778323 257.84533704 -329.72762881 262.72004559 -338.18115234 267.58935547 C-346.42435381 272.34050858 -354.64588483 277.12781206 -362.85961914 281.9296875 C-369.04453908 285.54249507 -375.24366869 289.12949032 -381.453125 292.69995117 C-420.60447006 311.91264233 -420.60447006 311.91264233 -452.89208984 339.19482422 C-446.51819728 344.47201492 -440.03569779 349.25311385 -433.01708984 353.63232422 C-432.08364746 354.22013672 -431.15020508 354.80794922 -430.18847656 355.41357422 C-409.99767134 368.07454061 -389.54859342 380.30994066 -368.89208984 392.19482422 C-367.74063477 392.85949707 -367.74063477 392.85949707 -366.56591797 393.53759766 C-342.33798388 407.4933262 -319.69559608 419.11624178 -291.08349609 411.43701172 C-261.65645392 402.96812438 -233.94880065 385.79026085 -207.7512207 370.35546875 C-201.19818259 366.50438915 -194.58308704 362.8003076 -187.89208984 359.19482422 C-179.00522499 354.40458731 -170.27488512 349.38070389 -161.57177734 344.26513672 C-155.71941898 340.82972635 -149.83977134 337.46222297 -143.89208984 334.19482422 C-133.89723344 328.69363897 -124.06418775 322.92170654 -114.22558594 317.14697266 C-111.34510937 315.46011967 -108.46104724 313.7797702 -105.57461548 312.10314941 C-61.77053157 288.87200599 -61.77053157 288.87200599 -27.91552734 254.13623047 C-25.98101172 251.32408709 -23.93039548 249.09506141 -21.51708984 246.69482422 C-10.24485536 234.34169054 -14.74288571 204.62374866 -14.75927734 188.76123047 C-14.75860166 186.42968231 -14.75762944 184.09813422 -14.75637817 181.7665863 C-14.75491336 176.90631431 -14.75701612 172.04606084 -14.76171875 167.18579102 C-14.76741206 161.00570734 -14.76413172 154.82566715 -14.75814629 148.64558506 C-14.7545049 143.83843162 -14.75569562 139.03128821 -14.75827408 134.22413445 C-14.75893365 131.94752942 -14.7581495 129.67092344 -14.75579453 127.39431953 C-14.74730949 116.88932611 -14.77511746 106.40176648 -15.33789062 95.90942383 C-15.37661222 95.17854081 -15.41533382 94.44765779 -15.45522881 93.69462681 C-15.65605723 90.42783344 -15.92999314 87.33282164 -16.89208984 84.19482422 C-19.4850752 84.19482422 -20.77748746 85.08494865 -23.05615234 86.32763672 Z M-35.57958984 294.19482422 C-36.99870406 294.95162838 -38.41798816 295.70811404 -39.83740234 296.46435547 C-41.0270459 297.11138428 -41.0270459 297.11138428 -42.24072266 297.77148438 C-45.18571094 299.35244954 -48.15625716 300.87623365 -51.13427734 302.39404297 C-64.04913808 308.98754766 -76.76679831 315.85129341 -89.35302734 323.05029297 C-94.80112379 326.16089387 -100.30892428 329.15301146 -105.82958984 332.13232422 C-114.64215481 336.89839189 -123.29748938 341.90152964 -131.9309082 346.98364258 C-138.51946343 350.84846727 -145.16835647 354.57086026 -151.89208984 358.19482422 C-161.61387029 363.44057128 -171.15717807 368.95884518 -180.68115234 374.55419922 C-187.10412674 378.32762019 -193.55941444 382.04370758 -200.01708984 385.75732422 C-211.69333567 392.48473759 -223.32557187 399.28036314 -234.89208984 406.19482422 C-235.45510803 406.53100769 -236.01812622 406.86719116 -236.59820557 407.21356201 C-240.3150973 409.43367295 -244.02744731 411.66115137 -247.73516846 413.89654541 C-248.94101285 414.62274952 -250.14780346 415.34738539 -251.35565186 416.07025146 C-266.62553088 424.85361498 -266.62553088 424.85361498 -278.89208984 437.19482422 C-275.07995861 445.05734489 -267.12784461 449.99330452 -259.89208984 454.44482422 C-259.09867187 454.93950195 -258.30525391 455.43417969 -257.48779297 455.94384766 C-246.08269543 463.00313665 -234.51026071 469.79256527 -222.95909119 476.60899353 C-218.534965 479.22060162 -214.11874809 481.84501959 -209.70849609 484.47998047 C-197.9312797 491.5080611 -186.09140982 498.38650697 -174.10009766 505.04321289 C-166.91058068 509.04048868 -159.79478267 513.14922364 -152.70458984 517.31982422 C-144.24879925 522.28754963 -135.71738574 527.0782605 -127.08813477 531.73754883 C-120.6809123 535.2012982 -114.34121586 538.76949017 -108.01708984 542.38232422 C-94.0995112 550.30558473 -79.93204703 557.75619913 -65.76019287 565.21130371 C-62.90275932 566.71568782 -60.04817816 568.22547137 -57.19287109 569.73388672 C-52.54260072 572.18515476 -47.8796051 574.60976528 -43.20117188 577.00683594 C-41.74504604 577.75599097 -40.29236712 578.51192064 -38.84472656 579.27734375 C-37.12145979 580.18753577 -35.38235412 581.06756819 -33.64208984 581.94482422 C-32.77068359 582.39341797 -31.89927734 582.84201172 -31.00146484 583.30419922 C-27.84728333 584.20765824 -25.46072944 584.2847216 -22.19775391 584.25048828 C-21.20487366 584.24245178 -20.21199341 584.23441528 -19.18902588 584.22613525 C-18.43103699 584.21580261 -17.6730481 584.20546997 -16.89208984 584.19482422 C-15.62747073 559.02538776 -15.5623073 533.82816527 -15.35945892 508.63327026 C-15.32933194 504.91297628 -15.29799719 501.19269403 -15.26641846 497.47241211 C-14.97815079 463.21324169 -14.78749595 428.95440541 -14.76915359 394.69398499 C-14.7671218 391.74125888 -14.76338013 388.78853927 -14.75924683 385.83581543 C-14.73667153 367.44262569 -14.79062718 349.06115162 -15.35302734 330.67529297 C-15.37351009 330.00006592 -15.39399284 329.32483887 -15.41509628 328.62915039 C-14.85505215 309.39604289 -14.85505215 309.39604289 -22.89208984 293.19482422 C-27.96118874 290.45846854 -30.84462346 291.51570645 -35.57958984 294.19482422 Z M6.10791016 296.19482422 C1.32941487 305.7518148 3.76969197 323.52862516 3.55322266 334.17529297 C3.53228672 335.18165487 3.51135078 336.18801678 3.48978043 337.2248745 C2.7884633 372.35582733 2.95783287 407.5013427 2.97934079 442.63746154 C2.98368235 450.56079286 2.98057842 458.48410826 2.97571266 466.40743858 C2.97113405 474.18544719 2.97055274 481.96344907 2.97315133 489.74145859 C2.97468315 494.33030615 2.97499497 498.91914308 2.97161484 503.50798988 C-0.15696063 545.25114294 -0.15696063 545.25114294 8.10791016 584.19482422 C14.37158825 583.69837756 19.49710994 580.85814266 25.04541016 578.13232422 C26.12862549 577.60574219 27.21184082 577.07916016 28.32788086 576.53662109 C48.01807384 566.89972064 67.46338205 556.76266579 86.66259766 546.18310547 C91.66103003 543.43019907 96.68773699 540.73207334 101.71850586 538.03881836 C112.07676031 532.49216959 122.35874267 526.83524394 132.56689453 521.01708984 C139.34181289 517.16505149 146.17762811 513.44080606 153.04541016 509.75732422 C162.11502127 504.88474625 171.03022952 499.79213398 179.89892578 494.56396484 C187.3795099 490.16675824 194.9428696 485.93951 202.54541016 481.75732422 C214.60879368 475.10288632 226.46667085 468.15240603 238.21582031 460.95849609 C241.02776938 459.24369616 243.85354361 457.55387249 246.68212891 455.86669922 C248.38726839 454.83141332 250.091736 453.7950197 251.79541016 452.75732422 C252.5553125 452.30977783 253.31521484 451.86223145 254.09814453 451.40112305 C259.07349359 448.32435179 263.64664737 444.64425152 266.10791016 439.19482422 C265.97342132 436.12724001 265.57687279 434.6962906 263.4699707 432.44335938 C257.15061073 427.81387002 250.6192834 423.62873264 243.92041016 419.56982422 C242.76375247 418.86428172 241.60726124 418.15846626 240.45092773 417.45239258 C229.73549123 410.92198958 218.93609951 404.53601999 208.10791016 398.19482422 C206.38711665 397.18472315 204.66632863 396.17461269 202.94570923 395.16421509 C195.5776871 390.83754359 188.20493388 386.51898814 180.83050537 382.20324707 C179.19563467 381.24617895 177.56118426 380.28839299 175.92675781 379.33056641 C145.96295451 361.77209762 115.73731374 344.67033234 85.42041016 327.72998047 C81.24645725 325.39630279 77.08042049 323.04935421 72.92041016 320.69091797 C62.52258924 314.80686069 52.07542213 309.02919828 41.4899292 303.48974609 C39.79239699 302.60096972 38.09780184 301.70659061 36.40332031 300.81201172 C20.79075288 291.55110278 20.79075288 291.55110278 6.10791016 296.19482422 Z M-464.89208984 358.19482422 C-473.65305513 375.71675479 -468.313415 410.52812121 -468.46588016 429.89526129 C-468.50686016 434.85663713 -468.55790025 439.8179114 -468.60768127 444.77920532 C-468.70162642 454.28999801 -468.7868932 463.80084739 -468.86884815 473.31175017 C-468.96406431 484.3231695 -469.06799642 495.33450143 -469.17258787 506.34583509 C-469.30725085 520.53036064 -469.44038495 534.71489835 -469.56787109 548.89949036 C-469.76687038 571.02172284 -469.97945942 593.14353141 -470.23974609 615.26513672 C-470.77707864 661.52247339 -470.99167339 707.77660232 -471.01348603 754.03677839 C-471.01563952 758.59429452 -471.01890083 763.15180776 -471.02315593 767.70932239 C-471.03042179 775.58857976 -471.03158062 783.46781163 -471.02653503 791.34707069 C-471.02499918 793.96848011 -471.02595579 796.58985067 -471.0282135 799.21126366 C-471.03789266 812.73142411 -470.90234813 826.23329214 -470.44628906 839.74658203 C-470.40756746 840.93756878 -470.36884586 842.12855553 -470.32895088 843.35563278 C-470.28765997 844.456861 -470.24636906 845.55808922 -470.2038269 846.69268799 C-470.16801451 847.6613039 -470.13220211 848.62991982 -470.09530449 849.62788773 C-469.91249257 851.93710409 -469.53596045 853.97570194 -468.89208984 856.19482422 C-463.32325362 856.5401784 -459.25061548 855.51296028 -454.26708984 853.19482422 C-453.51274658 852.85161133 -452.75840332 852.50839844 -451.98120117 852.15478516 C-439.27178951 846.20298754 -427.10200215 839.09653332 -414.89208984 832.19482422 C-413.46243896 831.38972412 -413.46243896 831.38972412 -412.00390625 830.56835938 C-406.91017182 827.69679385 -401.83605798 824.79306414 -396.77587891 821.86279297 C-394.0786097 820.30270634 -391.37704413 818.75023692 -388.67507935 817.19830322 C-356.26417946 801.51355707 -356.26417946 801.51355707 -334.64208984 775.94482422 C-333.21034096 771.32383576 -330.85742827 768.57920733 -327.60302734 765.07763672 C-314.27495757 750.41067409 -318.74280132 720.36171684 -318.76269531 701.87866211 C-318.76133614 699.72262035 -318.75955334 697.56657882 -318.75738525 695.41053772 C-318.75287192 689.6171025 -318.75457516 683.82368532 -318.75776434 678.03024983 C-318.76032009 671.92759104 -318.7579415 665.82493365 -318.75637817 659.72227478 C-318.75456565 649.47850267 -318.75693849 639.2347378 -318.76171875 628.9909668 C-318.76715813 617.19964456 -318.76539734 605.40833962 -318.75989234 593.61701781 C-318.75533325 583.43887436 -318.75472433 573.26073609 -318.75733101 563.08259195 C-318.75887865 557.02750677 -318.75912957 550.97242969 -318.75579453 544.91734505 C-318.75287497 539.22000138 -318.75496536 533.5226797 -318.76068878 527.82533836 C-318.76199478 525.75233115 -318.76165977 523.67932204 -318.75942612 521.60631561 C-318.74938907 511.33247048 -318.86269566 501.08345659 -319.337677 490.81932068 C-319.37641272 489.97469648 -319.41514845 489.13007229 -319.45505798 488.25985342 C-320.12416975 475.23622469 -322.11284481 464.86689616 -329.83349609 454.18310547 C-332.901418 449.72967045 -334.02525123 446.01008899 -334.70458984 440.69482422 C-335.59908562 435.62601482 -336.70132315 433.40477318 -340.89208984 430.19482422 C-341.53275391 429.68081055 -342.17341797 429.16679688 -342.83349609 428.63720703 C-347.95559805 424.55739326 -353.18312749 421.00203788 -358.82958984 417.69482422 C-359.67875977 417.19128418 -360.52792969 416.68774414 -361.40283203 416.16894531 C-370.66068473 410.69900039 -379.98666942 405.34495757 -389.31005859 399.98779297 C-394.55212531 396.97308509 -399.77566813 393.92820696 -404.99194336 390.86914062 C-421.77690655 381.02915479 -438.683085 371.40166753 -455.89208984 362.31982422 C-457.09442261 361.68512207 -457.09442261 361.68512207 -458.32104492 361.03759766 C-461.45692723 359.07944401 -461.45692723 359.07944401 -464.89208984 358.19482422 Z M451.10791016 358.19482422 C437.29337377 364.83452839 423.9612992 372.04755806 410.77587891 379.85888672 C405.95660526 382.71230872 401.08559596 385.4486001 396.17041016 388.13232422 C351.30555308 411.05645255 351.30555308 411.05645255 318.96044922 447.77514648 C317.29784569 451.04763086 315.6629049 453.94321253 313.23291016 456.69482422 C307.84812468 463.88658468 308.99698967 476.19915508 308.59570312 484.90014648 C308.55322386 485.81460069 308.51074459 486.72905489 308.46697807 487.67121983 C308.02498574 497.53955054 307.75397251 507.40876593 307.55322266 517.28466797 C307.52181875 518.80068761 307.52181875 518.80068761 307.48978043 520.34733391 C306.87025977 551.31739999 306.95691696 582.29501515 306.97934079 613.26979387 C306.98312623 619.10719589 306.9817379 624.944581 306.97753906 630.78198242 C306.87861882 674.9394204 306.87861882 674.9394204 307.56103516 719.08935547 C307.58098415 719.86921877 307.60093315 720.64908207 307.62148666 721.45257759 C307.07751291 744.23278573 307.07751291 744.23278573 315.60791016 764.38232422 C318.42843886 768.17109412 319.25876738 772.09028469 320.37744141 776.62060547 C322.95688004 785.71071275 331.57552372 792.27228009 339.29541016 797.06982422 C340.00753662 797.52123779 340.71966309 797.97265137 341.45336914 798.43774414 C343.9957011 800.0386869 346.54996813 801.61894119 349.10791016 803.19482422 C350.66010254 804.15171143 350.66010254 804.15171143 352.24365234 805.12792969 C380.17145305 822.29332945 408.52248024 838.73569061 437.29541016 854.44482422 C438.31763672 855.0062915 439.33986328 855.56775879 440.39306641 856.14624023 C441.82005859 856.92052368 441.82005859 856.92052368 443.27587891 857.71044922 C444.11401123 858.16709961 444.95214355 858.62375 445.81567383 859.09423828 C447.93921212 860.11382616 449.7845767 860.82236915 452.10791016 861.19482422 C455.52852803 857.77420635 454.4402315 846.86062579 454.63577271 842.16188049 C454.69780213 840.72357544 454.69780213 840.72357544 454.76108468 839.25621372 C455.20945994 828.41456046 455.46474568 817.57070305 455.66210938 806.72192383 C455.69355281 805.0297611 455.69355281 805.0297611 455.72563148 803.30341327 C456.31029639 770.83987609 456.25526271 738.37235792 456.24321056 705.90473861 C456.24089129 699.48826406 456.24065444 693.07179216 456.24172592 686.65531731 C456.24195577 685.26288664 456.24195577 685.26288664 456.24219026 683.84232606 C456.24251012 681.95410427 456.24283434 680.06588248 456.24316286 678.1776607 C456.24598417 660.65685453 456.24278347 643.13605367 456.23736249 625.61524837 C456.23289229 610.7076076 456.23367876 595.79997462 456.23828125 580.89233398 C456.243678 563.40490671 456.2457152 545.91748403 456.24266899 528.43005604 C456.24235057 526.55257762 456.2420362 524.67509919 456.24172592 522.79762077 C456.24157165 521.87483787 456.24141737 520.95205496 456.24125842 520.00130894 C456.24040882 513.61774424 456.24184186 507.23418259 456.24420547 500.85061836 C456.29427162 453.84011425 456.29427162 453.84011425 455.65820312 406.83520508 C455.62868478 405.4432617 455.62868478 405.4432617 455.59857011 404.02319825 C456.77659094 380.03881593 456.77659094 380.03881593 451.10791016 358.19482422 Z M-297.89208984 464.19482422 C-302.21263882 472.83592216 -300.21027125 486.84371343 -300.44628906 496.55151367 C-300.46725136 497.38446602 -300.48821365 498.21741838 -300.50981116 499.07561171 C-301.02899807 520.14223388 -301.03953543 541.20841701 -301.02641535 562.28023314 C-301.02382363 567.7746572 -301.02624708 573.26907988 -301.02780151 578.76350403 C-301.02960094 587.95635282 -301.02727327 597.14919347 -301.02246094 606.34204102 C-301.01699163 616.9107961 -301.01880923 627.47953197 -301.02428734 638.04828662 C-301.02884577 647.21703955 -301.02945664 656.38578675 -301.02684867 665.55454046 C-301.0253048 670.99059414 -301.02504005 676.42663881 -301.02838516 681.86269188 C-301.03130511 686.95947727 -301.0292137 692.05623808 -301.02349091 697.15302086 C-301.02218651 699.00393127 -301.02251703 700.85484381 -301.02475357 702.70575333 C-302.34980492 729.83549097 -302.34980492 729.83549097 -296.20458984 755.50732422 C-293.93614802 757.54422823 -293.93614802 757.54422823 -290.69287109 756.96435547 C-286.84948855 756.18619888 -283.36884746 755.07667275 -279.76708984 753.56982422 C-278.70385498 753.12727295 -278.70385498 753.12727295 -277.61914062 752.67578125 C-259.99741099 745.09225509 -243.05446191 735.5656516 -226.42480469 726.04003906 C-219.31075251 721.96900623 -212.12065081 718.05846637 -204.89208984 714.19482422 C-192.78424762 707.7122714 -180.81645658 701.00792764 -168.89208984 694.19482422 C-166.6668321 692.92528828 -164.44157158 691.65575721 -162.21630859 690.38623047 C-156.90491212 687.35482571 -151.59635254 684.31848088 -146.28851318 681.28085327 C-142.10531648 678.88740256 -137.91928432 676.49896749 -133.73193359 674.11279297 C-118.7325416 665.5633647 -103.77144841 656.95196924 -88.89208984 648.19482422 C-88.2609729 647.82341309 -87.62985596 647.45200195 -86.97961426 647.06933594 C-82.77291304 644.59273833 -78.56912375 642.11127073 -74.36804199 639.62515259 C-72.99588339 638.81344555 -71.62326331 638.002518 -70.25012207 637.19247437 C-50.0293083 627.27351918 -50.0293083 627.27351918 -35.89208984 612.19482422 C-35.3085848 609.73773047 -35.3085848 609.73773047 -35.89208984 607.19482422 C-53.2555234 587.8035444 -83.27872864 575.28660816 -105.77235413 562.18307495 C-111.2643095 558.98226988 -116.73605412 555.74791954 -122.20458984 552.50732422 C-149.83771741 536.15400689 -177.67352473 520.14865066 -205.56362915 504.23858643 C-209.75001503 501.84939771 -213.93129451 499.45142409 -218.11083984 497.05029297 C-256.68539127 470.38803582 -256.68539127 470.38803582 -297.89208984 464.19482422 Z M266.85791016 465.81982422 C266.15174561 466.12122314 265.44558105 466.42262207 264.71801758 466.7331543 C244.97158103 475.36950786 225.92426036 485.72319959 207.10791016 496.19482422 C204.94664449 497.39178675 202.78517729 498.58838544 200.62353516 499.78466797 C193.77860559 503.57661599 186.94193171 507.38325879 180.10791016 511.19482422 C179.01978027 511.80148926 177.93165039 512.4081543 176.81054688 513.03320312 C165.14139859 519.54265562 153.49657447 526.09142385 141.90356445 532.7355957 C135.6310821 536.3296195 129.3417885 539.8928544 123.04541016 543.44482422 C119.06548329 545.69348121 115.08661697 547.94400937 111.10791016 550.19482422 C110.03154297 550.80310059 108.95517578 551.41137695 107.84619141 552.03808594 C60.05329209 574.37542202 60.05329209 574.37542202 25.10791016 609.19482422 C25.21564632 615.01257727 27.14975795 618.15701361 31.10791016 622.19482422 C43.01261278 631.61374377 57.03768807 638.69203182 70.14587402 646.30464172 C74.32265214 648.73203306 78.47456459 651.19434512 82.60791016 653.69482422 C100.14891232 664.27251819 117.89163447 674.52376957 135.64599609 684.73803711 C141.84122692 688.30365461 148.02094179 691.89406777 154.1875 695.5090332 C164.38434904 701.48543163 174.64381559 707.33430303 184.96801758 713.08789062 C191.49765271 716.72752647 198.00068279 720.40899682 204.48291016 724.13232422 C240.11662455 748.5266133 240.11662455 748.5266133 279.10791016 761.19482422 C284.32098947 757.80026094 285.2092352 753.26580599 286.52978516 747.52294922 C287.84137937 739.97242037 288.34107284 732.39205919 288.66210938 724.74267578 C288.7042198 723.74656406 288.74633022 722.75045235 288.78971672 721.72415543 C289.24668769 709.96028447 289.25191504 698.20024219 289.24072266 686.42919922 C289.24178536 683.94928472 289.24317322 681.46937034 289.24485779 678.98945618 C289.24764781 672.35024799 289.24329468 665.71106089 289.23668289 659.07185745 C289.23263442 654.92566205 289.23081824 650.77946722 289.22921753 646.63327026 C289.21153606 606.10452215 289.04014915 565.57766106 288.70174408 525.05030823 C288.67044291 521.2612893 288.64067129 517.47226068 288.61114502 513.68322754 C288.56429428 507.75409353 288.51200643 501.82503235 288.45509529 495.89598656 C288.43483489 493.72966016 288.41603166 491.56331956 288.3988018 489.39696693 C288.37480704 486.44679032 288.34485948 483.49673417 288.31323242 480.54663086 C288.30460017 479.26787394 288.30460017 479.26787394 288.29579353 477.96328354 C288.23810114 473.27884481 287.88026127 468.81705303 287.10791016 464.19482422 C279.78745639 462.36471078 273.71047291 462.80115442 266.85791016 465.81982422 Z M7.42041016 634.63232422 C2.87033122 639.67430358 3.96041017 647.92762612 3.98092651 654.47096252 C3.97936652 655.25332856 3.97780653 656.03569459 3.97619927 656.84176868 C3.9722424 659.4380706 3.97535867 662.03431299 3.97851562 664.63061523 C3.9771588 666.50477635 3.97537728 668.37893719 3.97320557 670.25309753 C3.96865251 675.33827661 3.97041532 680.42343535 3.97358465 685.50861478 C3.97613377 690.88334278 3.97376231 696.25806916 3.97219849 701.63279724 C3.9703781 710.69913032 3.97277331 719.76545527 3.97753906 728.83178711 C3.98291738 739.18009694 3.98126614 749.52838687 3.97571266 759.87669617 C3.97110002 768.84316057 3.97057173 777.80961915 3.97315133 786.77608436 C3.97467856 792.09275156 3.97501099 797.40940959 3.97161484 802.72607613 C3.95928179 825.18424918 4.099513 847.63130453 4.56152344 870.08520508 C4.58146921 871.0791727 4.60141498 872.07314032 4.62196517 873.09722817 C4.15250986 902.68891141 4.15250986 902.68891141 10.10791016 931.19482422 C14.25607013 930.64186256 17.59206185 929.71593411 21.35400391 927.89404297 C22.34416504 927.41781494 23.33432617 926.94158691 24.35449219 926.45092773 C25.40749512 925.93328857 26.46049805 925.41564941 27.54541016 924.88232422 C28.64997559 924.34470459 29.75454102 923.80708496 30.89257812 923.25317383 C48.98736906 914.39423887 66.64974475 904.86685385 84.14257812 894.87890625 C88.21475403 892.56622146 92.30634049 890.28901055 96.39770508 888.01049805 C105.71757693 882.81961929 114.97616943 877.54268884 124.17041016 872.13232422 C133.1200518 866.86968283 142.17740585 861.8521148 151.32568359 856.9440918 C157.74549915 853.49383366 164.10448479 849.95659732 170.42041016 846.31982422 C178.32053619 841.77195256 186.26138771 837.30391673 194.23291016 832.88232422 C195.365271 832.25358398 196.49763184 831.62484375 197.66430664 830.97705078 C203.46617431 827.75856818 209.27466146 824.55270848 215.09228516 821.36279297 C242.57751992 806.29689323 242.57751992 806.29689323 268.10791016 788.19482422 C267.83828047 781.72371164 265.62703165 777.81452842 261.10791016 773.19482422 C258.20079636 770.90670765 255.11771779 769.04874573 251.92041016 767.19482422 C251.01331299 766.65140381 250.10621582 766.1079834 249.17163086 765.5480957 C247.20068349 764.37070482 245.22514993 763.20096451 243.24560547 762.03808594 C240.01090974 760.13784063 236.78900223 758.21725252 233.56884766 756.29248047 C226.76420158 752.233014 219.93960378 748.20856962 213.10791016 744.19482422 C212.08793945 743.59524902 211.06796875 742.99567383 210.01708984 742.37792969 C195.56911157 733.89430036 181.03988933 725.55493399 166.48321533 717.25975037 C162.29197716 714.87108495 158.1034714 712.47768556 153.91650391 710.08154297 C132.11691443 697.60715471 110.25799153 685.2409471 88.32910156 672.99511719 C85.1012681 671.19111204 81.87606661 669.38246045 78.65087891 667.57373047 C66.2286109 660.62283513 53.7400567 653.81209116 41.17041016 647.13232422 C40.50186005 646.77665375 39.83330994 646.42098328 39.14450073 646.05453491 C34.80828217 643.7498621 30.46137948 641.46674786 26.10791016 639.19482422 C24.96435059 638.5917041 23.82079102 637.98858398 22.64257812 637.3671875 C21.57797363 636.81659668 20.51336914 636.26600586 19.41650391 635.69873047 C18.48507568 635.213479 17.55364746 634.72822754 16.59399414 634.22827148 C13.00335992 632.73567061 10.84368584 632.80126978 7.42041016 634.63232422 Z M-37.64208984 637.25732422 C-38.30982422 637.60456543 -38.97755859 637.95180664 -39.66552734 638.30957031 C-42.08674765 639.58274292 -44.49019593 640.88555131 -46.89208984 642.19482422 C-47.87886719 642.73123535 -48.86564453 643.26764648 -49.88232422 643.8203125 C-65.03234704 652.08835687 -79.97924438 660.68539222 -94.86328125 669.42236328 C-118.50596554 683.2580789 -142.32286049 696.8083411 -166.18115234 710.26831055 C-174.85102594 715.16310173 -183.49819987 720.09737546 -192.13818359 725.04467773 C-193.33087928 725.72756115 -194.52358765 726.41042242 -195.71630859 727.09326172 C-196.30946869 727.43286423 -196.90262878 727.77246674 -197.51376343 728.12236023 C-201.64015182 730.48311333 -205.77426192 732.82992574 -209.91162109 735.17138672 C-221.97739378 742.00681154 -233.96254767 748.95699217 -245.82958984 756.13232422 C-246.94785156 756.80577881 -248.06611328 757.4792334 -249.21826172 758.1730957 C-263.9492003 767.02363783 -263.9492003 767.02363783 -276.89208984 778.19482422 C-277.51083984 778.71044922 -278.12958984 779.22607422 -278.76708984 779.75732422 C-279.13833984 780.23169922 -279.50958984 780.70607422 -279.89208984 781.19482422 C-279.14603454 786.77858186 -275.05175393 789.79197233 -270.89208984 793.19482422 C-265.7080805 796.86270194 -260.25419501 800.12483235 -254.82666016 803.41552734 C-251.69323784 805.31539272 -248.56981091 807.23105913 -245.44677734 809.14794922 C-230.39300202 818.36862039 -215.19928398 827.34159339 -199.95149231 836.23674011 C-194.52125159 839.40657926 -189.11222722 842.61164317 -183.70458984 845.81982422 C-174.74481745 851.12830726 -165.73339392 856.34424812 -156.70605469 861.53686523 C-150.38818921 865.17223024 -144.08522347 868.83123174 -137.79711914 872.51782227 C-127.6079947 878.49046823 -117.35630614 884.33586382 -107.03857422 890.08349609 C-100.44046363 893.76011681 -93.87548963 897.48868053 -87.32958984 901.25732422 C-58.48541862 920.75500171 -58.48541862 920.75500171 -27.01708984 931.44482422 C-26.15341797 931.47060547 -25.28974609 931.49638672 -24.39990234 931.52294922 C-21.29481301 931.11667585 -20.0344595 930.48129946 -17.89208984 928.19482422 C-17.07849432 925.37995815 -17.07849432 925.37995815 -16.89208984 922.19482422 C-16.79927734 921.16873047 -16.70646484 920.14263672 -16.61083984 919.08544922 C-14.7798279 888.61217907 -14.73890742 858.09924693 -14.75776434 827.58345342 C-14.76034701 822.07251647 -14.75793484 816.56158095 -14.75637817 811.05064392 C-14.75457563 801.82371719 -14.75691424 792.59679854 -14.76171875 783.36987305 C-14.76718201 772.75632747 -14.76537605 762.14280106 -14.75989234 751.52925593 C-14.75533511 742.33429269 -14.75472267 733.13933517 -14.75733101 723.94437116 C-14.75887638 718.48759519 -14.75913552 713.03082818 -14.75579453 707.57405281 C-14.75287664 702.45435511 -14.75496237 697.33468189 -14.76068878 692.2149868 C-14.76199454 690.35398524 -14.76166021 688.49298157 -14.75942612 686.6319809 C-14.74932585 677.35375192 -14.86842517 668.1045106 -15.3454895 658.83714294 C-15.38527259 658.06237706 -15.42505567 657.28761118 -15.46604431 656.48936754 C-15.78568909 645.01366876 -15.78568909 645.01366876 -20.89208984 635.19482422 C-27.26563486 633.07030921 -31.82079046 634.21084421 -37.64208984 637.25732422 Z M195.86547852 849.08496094 C189.34737298 852.92154355 182.76593215 856.60711585 176.10791016 860.19482422 C165.32924178 866.01070119 154.77201795 872.17524468 144.21289062 878.37841797 C138.96448386 881.44872355 133.69124165 884.47573747 128.42041016 887.50732422 C100.34448447 903.68584991 72.49742566 920.20092351 44.98291016 937.31982422 C44.02989014 937.91102051 43.07687012 938.5022168 42.0949707 939.11132812 C39.41847628 940.78488107 36.75939986 942.48196534 34.10791016 944.19482422 C32.71608521 945.08306885 32.71608521 945.08306885 31.29614258 945.98925781 C29.95193237 946.87991943 29.95193237 946.87991943 28.58056641 947.78857422 C27.37799194 948.57651367 27.37799194 948.57651367 26.15112305 949.38037109 C22.92820822 952.24244578 21.97860937 955.68528134 20.58837891 959.67529297 C18.4005127 964.87652635 15.24807092 969.35203335 12.02807617 973.96777344 C5.39959385 983.70252409 3.95291405 993.47931545 3.97851562 1005.06689453 C3.97676331 1006.04703522 3.97501099 1007.0271759 3.97320557 1008.03701782 C3.96880291 1011.2823463 3.97172587 1014.52762016 3.97509766 1017.77294922 C3.97442266 1020.05946869 3.97345101 1022.34598809 3.97219849 1024.63250732 C3.97072241 1029.44430214 3.97286765 1034.25607843 3.97753906 1039.06787109 C3.98314722 1045.13009412 3.97992767 1051.19227236 3.97408676 1057.25449371 C3.95297519 1083.25120466 4.0719603 1109.21617285 5.10791016 1135.19482422 C9.03986487 1133.92305982 12.47446853 1132.57749454 16.02978516 1130.46435547 C16.95903809 1129.91658447 17.88829102 1129.36881348 18.84570312 1128.80444336 C19.83973145 1128.21139404 20.83375977 1127.61834473 21.85791016 1127.00732422 C24.02158564 1125.73062644 26.18566181 1124.45460751 28.35009766 1123.17919922 C30.02410645 1122.19016602 30.02410645 1122.19016602 31.73193359 1121.18115234 C37.129174 1118.00557034 42.55557666 1114.88110553 47.98291016 1111.75732422 C50.16520873 1110.49952371 52.34750036 1109.24171114 54.52978516 1107.98388672 C57.81941305 1106.08888122 61.10916944 1104.19409892 64.39892578 1102.29931641 C75.98472782 1095.6252611 87.56344368 1088.94018337 99.10791016 1082.19482422 C110.65520532 1075.44781228 122.23693043 1068.76143104 133.82568359 1062.0859375 C139.25450954 1058.95802276 144.68113022 1055.82628691 150.10791016 1052.69482422 C156.6302429 1048.93118502 163.15304778 1045.168378 169.67822266 1041.40966797 C181.16097913 1034.79341305 192.62751917 1028.15092411 204.06933594 1021.46411133 C211.40103568 1017.18237462 218.75080381 1012.93273587 226.10791016 1008.69482422 C246.30237909 997.05895642 266.40716064 985.26991059 286.51040649 973.47741699 C290.88049307 970.91413733 295.25174751 968.35285763 299.62353516 965.79248047 C314.13719823 957.29170709 328.63602493 948.76659475 343.10791016 940.19482422 C344.61708008 939.30126221 344.61708008 939.30126221 346.15673828 938.38964844 C352.30318168 934.75020778 358.44814127 931.10827459 364.59185791 927.4642334 C368.43855733 925.18314992 372.2874008 922.90572092 376.13731384 920.63006592 C397.71548363 907.87350759 419.12559301 894.91720463 440.10791016 881.19482422 C433.06307816 863.97830966 395.32763191 849.8587849 380.10791016 841.19482422 C379.09341797 840.61667969 378.07892578 840.03853516 377.03369141 839.44287109 C371.30617661 836.18230548 365.56780864 832.9418322 359.81884766 829.71923828 C357.14924098 828.21806536 354.48774174 826.70323246 351.82666016 825.18701172 C293.77190715 792.34996434 249.17571473 817.63901104 195.86547852 849.08496094 Z M-352.70458984 817.00732422 C-353.68322998 817.48524414 -354.66187012 817.96316406 -355.67016602 818.45556641 C-365.9977666 823.59099191 -375.88559474 829.44077863 -385.78125 835.35351562 C-390.03176032 837.86939609 -394.32216124 840.31290081 -398.61279297 842.75952148 C-429.15062732 857.92901643 -429.15062732 857.92901643 -453.89208984 880.19482422 C-445.75602232 886.98647033 -436.83860993 892.55386783 -427.89208984 898.19482422 C-427.12944824 898.67661133 -426.36680664 899.15839844 -425.58105469 899.65478516 C-403.02760462 913.85982485 -379.9743347 927.27824402 -356.93505859 940.67529297 C-352.57778274 943.20987025 -348.22701078 945.75534153 -343.88037109 948.30810547 C-343.27921982 948.66113235 -342.67806854 949.01415924 -342.05870056 949.37788391 C-340.82999212 950.09947943 -339.60128834 950.82108288 -338.37258911 951.54269409 C-328.52830707 957.32368602 -318.66470729 963.06788769 -308.76708984 968.75732422 C-299.93437487 973.8354292 -291.1486586 978.98654972 -282.39208984 984.19482422 C-270.36625629 991.34611503 -258.26680568 998.36226826 -246.13476562 1005.33154297 C-240.67588373 1008.46828341 -235.22114825 1011.6122061 -229.76708984 1014.75732422 C-228.68935303 1015.37873291 -227.61161621 1016.0001416 -226.5012207 1016.64038086 C-218.29552945 1021.37569316 -210.11021613 1026.14525314 -201.93066406 1030.92553711 C-194.59896505 1035.20727339 -187.24926003 1039.45702429 -179.89208984 1043.69482422 C-171.54410526 1048.50334266 -163.209658 1053.33388105 -154.89208984 1058.19482422 C-143.34486498 1064.94195536 -131.76306865 1071.62821792 -120.17431641 1078.30371094 C-115.82750733 1080.80820239 -111.48216112 1083.31522487 -107.13696289 1085.82250977 C-104.97448443 1087.07027497 -102.81188684 1088.31783372 -100.64916992 1089.56518555 C-95.19317173 1092.71204014 -89.73859527 1095.86131495 -84.28662109 1099.01513672 C-72.97801484 1105.55385339 -61.65376149 1112.06116702 -50.26733398 1118.46362305 C-45.45865889 1121.16910867 -40.66596637 1123.89813018 -35.89599609 1126.67138672 C-34.92960205 1127.23124268 -33.96320801 1127.79109863 -32.9675293 1128.36791992 C-31.1256982 1129.4366053 -29.28683183 1130.51042173 -27.45141602 1131.59008789 C-26.22322144 1132.30128784 -26.22322144 1132.30128784 -24.97021484 1133.02685547 C-24.2525293 1133.44684814 -23.53484375 1133.86684082 -22.79541016 1134.29956055 C-20.79020244 1135.40764168 -20.79020244 1135.40764168 -17.89208984 1135.19482422 C-13.89219277 1127.19503006 -14.74303525 1117.20031337 -14.74682617 1108.48144531 C-14.74346756 1107.3547644 -14.74010895 1106.2280835 -14.73664856 1105.06726074 C-14.72720298 1101.36758297 -14.72519854 1097.66795078 -14.72412109 1093.96826172 C-14.72090362 1091.37529482 -14.71753918 1088.7823281 -14.71403503 1086.18936157 C-14.7080594 1080.76100161 -14.70615039 1075.33265947 -14.70678711 1069.90429688 C-14.70738637 1063.67072969 -14.69685735 1057.43724946 -14.68104345 1051.20370424 C-14.66627601 1045.16277807 -14.66280221 1039.12189827 -14.66339684 1033.08095169 C-14.66222502 1030.53195466 -14.65784867 1027.98295682 -14.65006447 1025.43397141 C-13.01279249 999.70404531 -13.01279249 999.70404531 -22.57958984 977.19482422 C-25.58058286 973.85956217 -27.6856296 970.17186706 -29.82958984 966.25732422 C-36.66703205 953.90001281 -46.25245296 945.571257 -58.07958984 938.06982422 C-58.9483374 937.51270752 -59.81708496 936.95559082 -60.7121582 936.3815918 C-63.43279826 934.64299116 -66.16085787 932.91673065 -68.89208984 931.19482422 C-69.7296582 930.6658252 -70.56722656 930.13682617 -71.43017578 929.59179688 C-86.40555257 920.1623111 -101.63722913 911.16217706 -116.89208984 902.19482422 C-117.4916449 901.84230591 -118.09119995 901.4897876 -118.70892334 901.12658691 C-127.76294224 895.80396337 -136.82574476 890.4964185 -145.89208984 885.19482422 C-146.94525391 884.57865234 -147.99841797 883.96248047 -149.08349609 883.32763672 C-161.42502286 876.10871046 -173.79258096 868.93641145 -186.18188477 861.79980469 C-194.42262288 857.05023791 -202.64116866 852.26363436 -210.85302734 847.46435547 C-218.18492736 843.18260284 -225.53478479 838.93275445 -232.89208984 834.69482422 C-241.67637579 829.63441949 -250.44811366 824.55321442 -259.20458984 819.44482422 C-260.20683594 818.86023438 -261.20908203 818.27564453 -262.24169922 817.67333984 C-269.74776834 813.29004447 -269.74776834 813.29004447 -272.38500977 811.55004883 C-275.10337289 810.08061328 -276.76635623 809.77897902 -279.82958984 809.68310547 C-280.7928418 809.64733398 -281.75609375 809.6115625 -282.74853516 809.57470703 C-283.7859082 809.5524707 -284.82328125 809.53023437 -285.89208984 809.50732422 C-287.52162598 809.46043457 -287.52162598 809.46043457 -289.18408203 809.41259766 C-292.75326769 809.32045698 -296.32224311 809.25577052 -299.89208984 809.19482422 C-301.14570313 809.16759277 -302.39931641 809.14036133 -303.69091797 809.11230469 C-307.50799829 809.03516745 -311.32445621 808.98516877 -315.14208984 808.94482422 C-316.31771484 808.92331299 -317.49333984 808.90180176 -318.70458984 808.87963867 C-331.0728408 808.83329271 -341.66600582 811.51335689 -352.70458984 817.00732422 Z " fill="#EBE1D7" transform="translate(584.89208984375,96.80517578125)"/>
<path d="M0 0 C16.55152646 0 33.03700657 0.05178315 49.5703125 0.55078125 C51.63393813 0.61097591 53.69756739 0.67104623 55.76119995 0.73100281 C60.05508225 0.85682105 64.34885416 0.9858382 68.64257812 1.11694336 C72.92466785 1.24730597 77.2068547 1.37232178 81.48925781 1.49194336 C105.24053282 2.15631779 128.96124961 3.04613192 152.6796875 4.48046875 C154.20647314 4.57098228 154.20647314 4.57098228 155.76410294 4.66332436 C195.52568808 7.04997361 225.91120294 17.60597993 253 48 C256.69995889 52.42758109 259.93551101 57.11613606 263 62 C263.57524414 62.91338135 263.57524414 62.91338135 264.16210938 63.84521484 C278.62234402 87.22501633 286.00434857 113.99938546 290 141 C290.11859375 141.78084961 290.2371875 142.56169922 290.359375 143.36621094 C297.60689452 193.77529762 292.20848381 254.80909252 261.9765625 297.38671875 C261.32429688 298.24910156 260.67203125 299.11148437 260 300 C259.32710937 300.89332031 258.65421875 301.78664063 257.9609375 302.70703125 C237.05500291 329.27657357 208.36350704 347.25253654 174.53123474 351.69973755 C116.94746748 358.53049205 57.46775989 356.70858967 0 358 C0 239.86 0 121.72 0 0 Z M68 60 C68 138.54 68 217.08 68 298 C130.90294857 303.12347312 130.90294857 303.12347312 195 280 C213.43149586 258.03809324 218.76423531 231.64139646 220.125 203.875 C220.18753967 202.642621 220.18753967 202.642621 220.25134277 201.38534546 C222.22182373 162.35053569 223.74736562 113.94927432 196.44140625 82.53125 C176.22642911 61.5723617 152.76301349 61.24454888 125 60 C106.19 60 87.38 60 68 60 Z " fill="#EBE1D7" transform="translate(5862,507)"/>
<path d="M0 0 C7.07201835 5.83230199 12.64446005 12.98928423 17.94140625 20.42578125 C22.02190213 18.19333604 25.0997493 15.52309331 28.44140625 12.30078125 C50.29981824 -8.17659817 75.73861195 -16.34270191 105.265625 -15.82421875 C126.30004575 -15.12248661 145.09552631 -7.59534517 159.94140625 7.42578125 C165.68465916 13.70355473 169.49810403 20.67835125 172.94140625 28.42578125 C173.4209375 29.48152344 173.4209375 29.48152344 173.91015625 30.55859375 C175.80745543 35.39670666 176.39324126 40.37728363 176.94970703 45.51318359 C177.07879802 46.70191606 177.07879802 46.70191606 177.2104969 47.91466331 C178.1458705 56.89580642 178.66614426 65.88293605 179.05859375 74.90234375 C179.10070858 75.84946857 179.14282341 76.7965934 179.18621445 77.77241898 C180.47876175 107.96915366 180.17008966 138.21154374 180.08546138 168.4286654 C180.05827025 178.31321403 180.04799983 188.1977824 180.0364399 198.08235931 C180.01795566 213.53021429 179.97802216 228.9779339 179.94140625 244.42578125 C157.50140625 244.42578125 135.06140625 244.42578125 111.94140625 244.42578125 C111.92158691 239.27412354 111.90176758 234.12246582 111.88134766 228.81469727 C111.81431197 211.75555202 111.73677146 194.69646631 111.65387917 177.63739109 C111.60389748 167.29888428 111.55745372 156.96038483 111.51953125 146.62182617 C111.48644353 137.60383783 111.44652154 128.58590914 111.39861619 119.56798691 C111.37351684 114.79935656 111.35168806 110.03076494 111.33806229 105.26208687 C111.32508981 100.76000888 111.30287744 96.25806486 111.27402306 91.75606155 C111.26506438 90.11679611 111.25928503 88.47750918 111.25719261 86.8382206 C111.24473379 78.54899602 110.97527943 70.37813796 110.03475952 62.13682556 C109.91653349 61.0885428 109.91653349 61.0885428 109.79591906 60.01908261 C108.82859558 52.3407265 106.16440749 44.4541885 99.94140625 39.42578125 C88.76029778 32.81029207 78.79814852 30.75145515 66.00390625 33.48828125 C55.02242162 36.52601661 45.15081047 42.64595361 39.10546875 52.3828125 C23.6642845 80.88710832 26.82482052 118.30225587 26.625 149.6015625 C26.60484424 152.35166568 26.58341829 155.1017586 26.56202698 157.85185242 C26.51266254 164.28975462 26.46752189 170.72767879 26.42400461 177.16562289 C26.3692264 185.23479312 26.30862129 193.30391843 26.24804688 201.37304688 C26.14034085 215.7239234 26.04125734 230.07484317 25.94140625 244.42578125 C4.82140625 244.42578125 -16.29859375 244.42578125 -38.05859375 244.42578125 C-38.10757813 235.1703125 -38.1565625 225.91484375 -38.20703125 216.37890625 C-38.24251015 210.43618974 -38.27844985 204.49348161 -38.31640625 198.55078125 C-38.37627294 189.16473497 -38.43445431 179.77870388 -38.48046875 170.39257812 C-33.26019727 101.52518226 -33.26019727 101.52518226 -52.05859375 39.42578125 C-61.48461595 31.71358127 -74.52669313 32.49224644 -86.05859375 33.42578125 C-98.57470542 35.68300657 -108.61739653 43.31040379 -116.05859375 53.42578125 C-122.11456676 63.15634205 -124.3592448 73.87735147 -125.18359375 85.17578125 C-125.25707031 86.03042969 -125.33054687 86.88507813 -125.40625 87.765625 C-127.06540357 108.40316677 -127.2423679 129.10582098 -127.375 149.796875 C-127.39517053 152.54411959 -127.41658922 155.2913541 -127.43797302 158.03858948 C-127.48727542 164.462259 -127.53243745 170.88595021 -127.57599539 177.30966097 C-127.63083713 185.36337015 -127.6914135 193.41703511 -127.75195312 201.47070312 C-127.85955976 215.78902805 -127.95870298 230.10739581 -128.05859375 244.42578125 C-149.17859375 244.42578125 -170.29859375 244.42578125 -192.05859375 244.42578125 C-192.05859375 158.95578125 -192.05859375 73.48578125 -192.05859375 -14.57421875 C-172.25859375 -14.57421875 -152.45859375 -14.57421875 -132.05859375 -14.57421875 C-131.56359375 -0.21921875 -131.56359375 -0.21921875 -131.05859375 14.42578125 C-130.56359375 15.41578125 -130.56359375 15.41578125 -130.05859375 16.42578125 C-124.06905217 15.89729229 -120.65811332 12.02530082 -116.62109375 7.98828125 C-86.2080727 -22.4247398 -34.4546368 -25.15399864 0 0 Z " fill="#EBE1D7" transform="translate(3479.05859375,618.57421875)"/>
<path d="M0 0 C22.11 0 44.22 0 67 0 C67 45.54 67 91.08 67 138 C114.85 138 162.7 138 212 138 C212 92.46 212 46.92 212 0 C234.44 0 256.88 0 280 0 C280 117.15 280 234.3 280 355 C257.56 355 235.12 355 212 355 C212 302.86 212 250.72 212 197 C164.15 197 116.3 197 67 197 C67 249.14 67 301.28 67 355 C44.89 355 22.78 355 0 355 C0 237.85 0 120.7 0 0 Z " fill="#EBE1D7" transform="translate(2596,508)"/>
<path d="M0 0 C1.60529992 1.49878713 3.20953017 2.99872108 4.8125 4.5 C7.12641059 6.52415434 9.46747864 8.51182971 11.8125 10.5 C12.4725 10.17 13.1325 9.84 13.8125 9.5 C17.08698045 -0.32344135 15.44292076 -11.15178115 15.8125 -21.5 C35.6125 -21.5 55.4125 -21.5 75.8125 -21.5 C75.83523038 4.25981389 75.85358476 30.01961944 75.86431217 55.77944088 C75.86942944 67.74497275 75.87638295 79.71049786 75.88793945 91.67602539 C75.89802812 102.12691092 75.90438647 112.57779155 75.90658849 123.02868181 C75.90787201 128.54255918 75.91080278 134.05642254 75.91823006 139.57029533 C75.9459917 161.06362675 75.88675847 182.54557285 75.36108398 204.03344727 C75.33107557 205.28159236 75.33107557 205.28159236 75.30046093 206.5549525 C73.41555019 282.75480373 73.41555019 282.75480373 50.2109375 307.2265625 C25.21897013 330.91601691 -12.34279827 335.72072765 -45.3125 335.75 C-46.10274567 335.75100708 -46.89299133 335.75201416 -47.70718384 335.75305176 C-81.61889636 335.72398372 -119.01143792 331.54022002 -144.1875 306.5 C-145.01507813 305.72462891 -145.01507813 305.72462891 -145.859375 304.93359375 C-158.21497264 292.21264242 -162.08830759 272.53748233 -163.1875 255.5 C-151.557305 256.08261075 -140.0089469 257.01010553 -128.4375 258.3125 C-127.66044708 258.39925995 -126.88339417 258.4860199 -126.08279419 258.57540894 C-116.55351577 259.64910118 -107.05950674 260.82057455 -97.625 262.5625 C-96.78807617 262.71243408 -95.95115234 262.86236816 -95.08886719 263.0168457 C-89.91695138 264.05067513 -87.67782165 265.27077939 -84.79296875 269.5859375 C-84.32503906 270.34132813 -83.85710937 271.09671875 -83.375 271.875 C-78.72955349 278.92326367 -73.30478301 282.96438029 -64.93505859 285.06542969 C-59.38155229 285.94380548 -53.71984441 285.72585402 -48.10791016 285.74023438 C-45.85409946 285.74982302 -43.60124874 285.780822 -41.34765625 285.8125 C-28.42934468 285.90640359 -13.32121931 285.54820414 -3.109375 276.69921875 C11.31822451 262.08459481 11.08113558 239.22468353 11.0625 220 C11.06190582 219.30988831 11.06131165 218.61977661 11.06069946 217.90875244 C11.23970283 209.60921629 11.23970283 209.60921629 9.8125 201.5 C5.70965986 202.87732999 3.14407616 204.73643659 0 207.6875 C-0.88042969 208.49445313 -1.76085938 209.30140625 -2.66796875 210.1328125 C-4.14844068 211.52376752 -5.61587515 212.92927321 -7.05078125 214.3671875 C-22.86910593 229.58925603 -48.34692056 234.92798242 -69.5 234.8125 C-70.59231934 234.80686035 -71.68463867 234.8012207 -72.81005859 234.79541016 C-97.17364335 234.43080472 -117.57920725 225.32960913 -134.76904297 207.99609375 C-160.77936197 180.56214627 -171.00003347 140.61961369 -170.37109375 103.66015625 C-169.12348122 71.55544384 -163.24244837 38.05713052 -141.1875 13.5 C-140.31062729 12.49138122 -139.43434359 11.48225013 -138.55859375 10.47265625 C-121.85731573 -8.53193648 -100.69829068 -20.90287954 -75.296875 -23.3125 C-49.00739144 -24.7857271 -19.96710365 -17.9015412 0 0 Z M-85.65136719 43.68701172 C-102.43052625 63.49025952 -104.68164136 91.41965173 -102.87890625 116.21875 C-100.98494615 138.30214392 -96.07891405 160.51880383 -79.375 176.25 C-70.16022634 183.93194864 -59.75001222 186.89660047 -47.9375 186.8125 C-47.10412109 186.80686035 -46.27074219 186.8012207 -45.41210938 186.79541016 C-31.50516863 186.52341151 -19.27036 182.07372395 -9.01953125 172.44921875 C10.46176212 151.72178721 12.62293854 121.470881 11.953125 94.49414062 C10.95442193 73.23008778 3.90579561 53.78196181 -11.1875 38.5 C-11.785625 37.84128906 -12.38375 37.18257812 -13 36.50390625 C-19.10883428 29.92842491 -26.02954422 25.84176344 -35.09082031 25.33886719 C-38.53981349 25.29324839 -41.98823079 25.26475623 -45.4375 25.25 C-46.62730469 25.229375 -47.81710937 25.20875 -49.04296875 25.1875 C-65.43751583 25.11503791 -74.90778238 31.92850911 -85.65136719 43.68701172 Z " fill="#EBE1D7" transform="translate(6550.1875,625.5)"/>
<path d="M0 0 C21.12 0 42.24 0 64 0 C64.04898438 6.868125 64.09796875 13.73625 64.1484375 20.8125 C64.18390462 25.21485676 64.21991035 29.61719641 64.2578125 34.01953125 C64.31766349 40.97702318 64.37573101 47.93449173 64.421875 54.89208984 C64.4592855 60.51378761 64.50577954 66.13534911 64.55806351 71.75692749 C64.57631651 73.88062095 64.59152625 76.00434326 64.60334396 78.12808228 C64.68988359 93.17010589 65.54551872 108.02763919 67 123 C71.21341875 123 71.67626122 122.85348025 74.765625 120.4375 C75.48258545 119.89158203 76.1995459 119.34566406 76.93823242 118.78320312 C77.70111572 118.19474609 78.46399902 117.60628906 79.25 117 C101.66580655 100.30540153 129.37911768 90.85148155 157.51513672 94.30908203 C179.7221541 97.60665355 199.30617753 106.97327919 213.1875 125.1875 C223.04024066 139.48793532 227.12845915 153.44585062 228.1171875 170.69140625 C228.19532684 171.98301163 228.27346619 173.274617 228.35397339 174.60536194 C229.6334092 197.38085265 229.7202442 220.22758125 230.06445312 243.03106689 C230.14444062 248.19179256 230.23283795 253.35235909 230.32130814 258.51294518 C230.86972633 290.68045341 231.08690293 322.82729244 231 355 C208.56 355 186.12 355 163 355 C163.01683838 349.38758301 163.03367676 343.77516602 163.05102539 337.99267578 C163.10009947 319.45265293 163.10024786 300.91286845 163.07515812 282.37280464 C163.06114073 271.13149715 163.06385478 259.89066219 163.10620117 248.64941406 C163.14307548 238.84944132 163.14830823 229.05004485 163.11582941 219.25004756 C163.0997349 214.06262173 163.09929226 208.87627656 163.13676643 203.68893814 C163.17157446 198.80136794 163.16391869 193.91566323 163.12437057 189.02814674 C163.11725558 187.23917682 163.1253581 185.45006804 163.15022469 183.66125679 C163.36916124 172.01506952 163.36916124 172.01506952 157.65306091 162.1257019 C156.11951396 160.73100975 154.56939963 159.354222 153 158 C151.78612743 156.58469937 150.59351532 155.15043919 149.4375 153.6875 C144.73604908 148.28629824 139.1261931 144.42639858 131.87207031 143.82299805 C115.91815899 143.39681331 100.90986874 144.28694096 87 153 C86.36835938 153.38285156 85.73671875 153.76570312 85.0859375 154.16015625 C75.39611812 161.13938739 71.92311101 174.87204022 70 186 C68.47949427 195.99453991 67.51181449 205.94287917 66.94140625 216.0390625 C66.87997027 217.10102278 66.87997027 217.10102278 66.81729317 218.1844368 C65.67481059 238.22168879 65.36444439 258.28700245 64.99383545 278.35021973 C64.84411297 286.38916516 64.68283152 294.42788581 64.52136421 302.46660233 C64.46748186 305.20201035 64.41687746 307.93746087 64.3669281 310.67294312 C64.08048873 325.46096197 63.52815864 340.21155798 63 355 C42.21 355 21.42 355 0 355 C0 237.85 0 120.7 0 0 Z " fill="#EBE1D7" transform="translate(5387,508)"/>
<path d="M0 0 C20.79 0 41.58 0 63 0 C63.06058594 6.01347656 63.12117188 12.02695312 63.18359375 18.22265625 C63.22419347 22.08268767 63.26501961 25.94271416 63.30664062 29.80273438 C63.37236364 35.89996376 63.43734762 41.99719335 63.49731445 48.09448242 C63.75100444 73.7736635 64.09771042 99.37980199 66 125 C74.43723461 120.32612514 74.43723461 120.32612514 82.1875 114.625 C102.53035445 98.29185827 130.56464273 91.62116544 156.23681641 94.22705078 C175.47681214 96.62623213 192.20479465 104.22817636 206 118 C206.69867187 118.68707031 207.39734375 119.37414062 208.1171875 120.08203125 C227.59223769 140.50431151 227.79448675 166.60794629 228.484375 193.24609375 C228.51474507 194.38547142 228.51474507 194.38547142 228.54572868 195.54786682 C229.22986036 221.52489683 229.56679919 247.51077 229.96279162 273.49348253 C230.05179301 279.32423158 230.14310885 285.15494259 230.23503023 290.98564625 C230.34662425 298.0655327 230.4566601 305.14544275 230.56622386 312.22536087 C230.59733164 314.22909108 230.62875089 316.23281645 230.66017342 318.23654175 C230.71856851 321.97538788 230.77561204 325.71425227 230.83227539 329.453125 C230.84940582 330.53580154 230.86653625 331.61847809 230.88418579 332.73396301 C230.99475192 340.15861426 231 347.57243337 231 355 C208.23 355 185.46 355 162 355 C162.02731201 349.40329346 162.05462402 343.80658691 162.08276367 338.0402832 C162.16503314 319.53623077 162.1873121 301.03246392 162.17878246 282.52824116 C162.17507265 271.31043636 162.19176616 260.09336524 162.25708008 248.87573242 C162.31397903 239.09436607 162.3319966 229.31381819 162.3040064 219.53231305 C162.29053484 214.35629975 162.29606964 209.18193088 162.34822655 204.00612831 C162.39679135 199.12567543 162.39303196 194.24795292 162.35058594 189.36746979 C162.3440383 187.58457117 162.3559737 185.80148465 162.38863564 184.01887321 C162.56804355 173.55460848 161.61312276 166.86209533 154.19633979 159.11131889 C152.80593636 157.73238147 151.40320614 156.36590725 150 155 C148.65783279 153.34043899 147.32232549 151.67541363 146 150 C144.05339601 148.43235962 144.05339601 148.43235962 142 147.25 C141.34 146.84265625 140.68 146.4353125 140 146.015625 C128.87647346 140.36695918 111.25524066 143.4621657 99.75 146.73828125 C89.27146811 150.26387063 80.79827796 155.59672508 75.3125 165.375 C66.91593506 183.65962496 66.80048412 205.57911403 65.94140625 225.35546875 C65.90044893 226.26015585 65.85949162 227.16484295 65.81729317 228.09694481 C64.77256797 251.37329157 64.38481438 274.66432375 63.99383545 297.95904541 C63.84304435 306.93511856 63.68639405 315.91106964 63.52136421 324.88689232 C63.46604735 327.98340666 63.41627186 331.07997552 63.3669281 334.17658997 C63.33331832 336.058242 63.29948203 337.93989001 63.26538086 339.8215332 C63.24743469 341.0904541 63.24743469 341.0904541 63.22912598 342.38500977 C63.21381332 343.17253128 63.19850067 343.9600528 63.182724 344.7714386 C63.17149474 345.44749303 63.16026548 346.12354746 63.14869595 346.82008839 C62.96131729 349.56709604 62.45265469 352.28407188 62 355 C41.54 355 21.08 355 0 355 C0 237.85 0 120.7 0 0 Z " fill="#EBE1D7" transform="translate(1825,508)"/>
<path d="M0 0 C0.77707306 -0.00696899 1.55414612 -0.01393799 2.35476685 -0.02111816 C4.84464004 -0.03839191 7.33428816 -0.04483626 9.82421875 -0.046875 C10.67420441 -0.04788208 11.52419006 -0.04888916 12.39993286 -0.04992676 C24.98809365 -0.0398276 37.19512874 0.36406697 49.51171875 3.203125 C50.18589844 3.35297852 50.86007813 3.50283203 51.5546875 3.65722656 C72.63346129 8.4580498 93.80140655 16.90197889 106.05078125 35.62109375 C121.61616041 63.13102858 117.46416323 103.21896384 117.7578125 133.8203125 C117.76619644 134.67952868 117.77458038 135.53874485 117.78321838 136.42399788 C117.86028417 144.43054539 117.93055332 152.4371384 117.98852539 160.44384766 C117.86071824 208.7636546 117.86071824 208.7636546 128.3046875 255.59765625 C129.51171875 259.203125 129.51171875 259.203125 129.51171875 261.203125 C108.72171875 261.203125 87.93171875 261.203125 66.51171875 261.203125 C64.20171875 254.603125 61.89171875 248.003125 59.51171875 241.203125 C56.52498545 234.17043898 56.52498545 234.17043898 52.51171875 233.203125 C51.89296875 233.88375 51.27421875 234.564375 50.63671875 235.265625 C31.57754236 254.0615531 1.77515316 263.33703782 -24.48828125 263.578125 C-43.95745936 263.39913236 -62.60927009 258.83698597 -78.48828125 247.203125 C-79.09542969 246.77902344 -79.70257812 246.35492187 -80.328125 245.91796875 C-93.24933495 235.9762378 -102.31362856 220.19022018 -104.48828125 204.203125 C-106.03313101 183.10503267 -103.44818704 160.93148382 -89.55078125 144.203125 C-79.97578426 134.01191534 -67.34501826 128.1629438 -54.48828125 123.203125 C-53.55628906 122.83888428 -53.55628906 122.83888428 -52.60546875 122.46728516 C-34.26713503 115.4609291 -14.63265824 111.62503974 4.41308594 107.01660156 C8.42977827 106.04459766 12.4442081 105.06364929 16.45758057 104.07803345 C18.68070816 103.53539857 20.90633486 103.00413756 23.13232422 102.47338867 C32.90229993 100.0998739 42.17508392 96.92634696 51.51171875 93.203125 C53.16216347 82.62828402 50.2600509 74.09582006 45.63671875 64.640625 C45.30937744 63.96201416 44.98203613 63.28340332 44.64477539 62.58422852 C41.9762204 57.38846011 39.22922493 54.16140349 33.54296875 52.15625 C24.23971407 50.30383203 15.12014091 49.89262183 5.63671875 49.828125 C4.40115234 49.81426758 3.16558594 49.80041016 1.89257812 49.78613281 C-9.86357668 49.84633954 -18.98361154 51.72904763 -27.48828125 60.203125 C-31.06172294 64.56372343 -34.27017605 69.0937233 -37.08984375 73.9765625 C-38.48828125 76.203125 -38.48828125 76.203125 -40.48828125 77.203125 C-52.23406555 78.22624994 -64.25611906 77.24979437 -75.92578125 75.890625 C-76.97258057 75.77299805 -78.01937988 75.65537109 -79.09790039 75.53417969 C-91.76309288 73.92831337 -91.76309288 73.92831337 -95.48828125 70.203125 C-94.88736323 51.87512552 -82.60727237 37.77909165 -70.48828125 25.203125 C-69.87082031 24.5225 -69.25335937 23.841875 -68.6171875 23.140625 C-52.03800629 5.32893871 -23.38095651 0.14232596 0 0 Z M29.57421875 147.203125 C28.44975342 147.4287915 27.32528809 147.65445801 26.16674805 147.88696289 C-9.42879405 153.84259288 -9.42879405 153.84259288 -38.05078125 173.453125 C-41.27537351 179.62191019 -41.68313392 186.75096697 -39.875 193.48828125 C-35.71858259 202.6983163 -27.69327835 208.62108993 -18.48828125 212.203125 C-12.51768727 214.3195669 -7.0603794 214.5530468 -0.80078125 214.515625 C0.17802002 214.50998535 1.15682129 214.5043457 2.1652832 214.49853516 C16.11495371 214.26455413 27.84855516 210.497022 38.51171875 201.203125 C49.52862199 188.516994 53.59519957 174.70735752 53.82421875 158.265625 C53.84202393 157.42378662 53.8598291 156.58194824 53.87817383 155.71459961 C53.87712646 154.91803955 53.8760791 154.12147949 53.875 153.30078125 C53.87798096 152.58414307 53.88096191 151.86750488 53.8840332 151.12915039 C53.39405185 148.59442064 52.56103056 147.74243102 50.51171875 146.203125 C43.64263588 144.0326951 36.41693916 145.7881228 29.57421875 147.203125 Z " fill="#EBE1D7" transform="translate(3837.48828125,601.796875)"/>
<path d="M0 0 C0.82569489 -0.00067474 1.65138977 -0.00134949 2.50210571 -0.00204468 C15.28470155 0.0145406 27.72525429 0.46037281 40.25 3.25 C41.0224707 3.42160645 41.79494141 3.59321289 42.59082031 3.77001953 C58.14756553 7.38013938 72.91412819 12.86932356 85.25 23.25 C85.97703125 23.84167969 86.7040625 24.43335938 87.453125 25.04296875 C104.20182507 40.03369458 105.26379889 65.75933692 106.53051758 86.6171875 C107.58369751 106.24500572 107.56600931 125.91212167 107.75 145.5625 C106.60013537 201.3832464 106.60013537 201.3832464 118.26171875 255.3515625 C119.25 258.25 119.25 258.25 119.25 261.25 C98.79 261.25 78.33 261.25 57.25 261.25 C53.25 251.25 53.25 251.25 51.65234375 247.09765625 C51.40806641 246.46666016 51.16378906 245.83566406 50.91210938 245.18554688 C50.41932166 243.91173711 49.93255766 242.63558414 49.45117188 241.35742188 C48.16419787 238.06317806 47.04222333 235.4953784 44.25 233.25 C41.29488244 234.5798029 39.2951735 236.04413927 37 238.3125 C15.45106789 257.50701175 -15.64917405 264.76237084 -43.75 263.25 C-54.64690696 262.2679602 -64.79110408 259.8737731 -74.75 255.25 C-75.70390625 254.80785156 -76.6578125 254.36570312 -77.640625 253.91015625 C-92.71314361 246.31074393 -105.55511119 232.26576538 -111.81640625 216.578125 C-113.54202172 211.20954353 -114.43709476 205.87251607 -114.75 200.25 C-114.79125 199.53972656 -114.8325 198.82945312 -114.875 198.09765625 C-115.42633647 177.93941656 -111.74163586 157.31320779 -97.69921875 142.11328125 C-75.86731576 121.24390705 -41.3616751 115.59338723 -13.07940674 108.80981445 C-6.09768606 107.13193309 0.87812049 105.43038914 7.8500061 103.71212769 C10.43092693 103.07943279 13.01448065 102.45849683 15.59838867 101.83813477 C28.81192623 98.64659284 28.81192623 98.64659284 41.25 93.25 C44.25301595 87.24396811 41.3291695 79.88824293 39.515625 73.8984375 C36.59147064 65.46893079 33.69960486 58.51812883 26.25 53.25 C16.52955138 49.62185803 5.59933194 49.95028774 -4.625 49.875 C-5.86064697 49.86106201 -7.09629395 49.84712402 -8.36938477 49.83276367 C-20.09980712 49.89363317 -27.87821365 51.52531161 -36.421875 59.7734375 C-41.22101503 64.87856297 -45.17745444 70.23308117 -48.75 76.25 C-58.28082199 81.01541099 -76.01159318 77.12269119 -86.1875 75.9375 C-87.23429932 75.81987305 -88.28109863 75.70224609 -89.35961914 75.58105469 C-95.00329118 74.86547276 -99.65791486 73.80678536 -104.75 71.25 C-105.95770013 56.99913849 -98.23068936 45.23119233 -89.41113281 34.64257812 C-70.51556841 12.66723846 -49.14179187 3.46528031 -20.59594727 0.44848633 C-13.74402946 -0.02939041 -6.86575996 0.00503049 0 0 Z M19.875 147.375 C18.22963257 147.71059937 18.22963257 147.71059937 16.55102539 148.05297852 C-20.02848445 154.13521834 -20.02848445 154.13521834 -48.75 175.25 C-51.4898851 179.85798857 -51.46200475 185.04630571 -50.75 190.25 C-47.97584414 199.17847249 -41.99336362 205.36255866 -33.8984375 209.8203125 C-20.93373854 215.93573654 -4.11920884 216.47651096 9.6171875 212.2890625 C23.62934809 206.75904066 33.4414255 198.30522736 39.50390625 184.3671875 C43.34014071 173.75030245 46.18305317 160.50940901 43.5625 149.3125 C41.78886176 146.5253542 40.43249989 146.04562497 37.25 145.25 C31.30591061 144.82542219 25.66399382 146.18606566 19.875 147.375 Z " fill="#EBE1D7" transform="translate(7151.75,601.75)"/>
<path d="M0 0 C1.01707031 0.5775 2.03414062 1.155 3.08203125 1.75 C9.74777166 5.77741239 15.45546925 10.54562423 21 16 C22.14275391 17.12341797 22.14275391 17.12341797 23.30859375 18.26953125 C35.82356596 31.34843635 42.73566921 47.64076812 47.6875 64.8125 C47.97318848 65.7866687 47.97318848 65.7866687 48.26464844 66.78051758 C52.57589992 82.58655869 53.70346945 98.84766196 54.6875 115.125 C54.81752143 117.16281405 54.94837631 119.20057511 55.08007812 121.23828125 C55.39629162 126.15829859 55.701353 131.07888643 56 136 C55.25438466 136.00423194 54.50876932 136.00846388 53.74055958 136.01282406 C35.55177205 136.11637751 17.36302161 136.2250508 -0.82570171 136.33933926 C-9.62182542 136.39448758 -18.41795317 136.44793811 -27.21411133 136.49731445 C-34.88576615 136.54038291 -42.55739333 136.58671568 -50.22900516 136.63687855 C-54.2865638 136.66329836 -58.34411762 136.68814449 -62.4017086 136.70907402 C-66.23070133 136.72887618 -70.05964234 136.7530845 -73.88858795 136.78049088 C-75.28443001 136.78973821 -76.68028331 136.79745574 -78.07614326 136.80341911 C-94.78373763 136.60128834 -94.78373763 136.60128834 -111 140 C-111.694768 154.97611027 -107.58414033 166.78262788 -97.75 178.25 C-89.25776649 187.19590876 -77.37538056 195.19566393 -64.71679688 196.17700195 C-48.38499994 196.80679879 -48.38499994 196.80679879 -33 192 C-32.30519531 191.64550781 -31.61039063 191.29101562 -30.89453125 190.92578125 C-25.21442334 187.33178084 -21.61603742 181.73710414 -17.85522461 176.29370117 C-13.14274037 169.50281128 -13.14274037 169.50281128 -10 168 C-6.97116185 167.53424091 -3.99741309 167.52707243 -0.9375 167.5625 C-0.03080566 167.56862305 0.87588867 167.57474609 1.81005859 167.58105469 C9.65644716 167.7525172 17.36153579 168.63496314 25.125 169.75 C26.2375415 169.90670166 27.35008301 170.06340332 28.49633789 170.22485352 C45.95182407 172.95182407 45.95182407 172.95182407 50 177 C49.77893631 190.92701258 39.49010665 201.37039131 30.3125 211 C7.77558324 232.82145909 -18.6834262 245.08875149 -50 246 C-51.70929688 246.061875 -51.70929688 246.061875 -53.453125 246.125 C-84.00891285 246.70425664 -116.78321095 240.13031291 -140 219 C-140.89203125 218.18917969 -141.7840625 217.37835937 -142.703125 216.54296875 C-167.6491435 192.74669692 -176.98275773 162.28344422 -177.94580078 128.51367188 C-178.89341556 84.56483499 -173.55654328 46.61713068 -142.03466797 13.61694336 C-104.84220488 -24.01867794 -44.49477738 -25.28885168 0 0 Z M-100.15234375 51.5078125 C-105.31765745 58.47497981 -108.26528061 66.05294785 -110.4375 74.375 C-110.6137793 75.04088135 -110.79005859 75.7067627 -110.97167969 76.39282227 C-111.96315775 80.56363298 -112.19682464 83.86768008 -111 88 C-107.79673334 91.95610507 -103.82993667 92.30596689 -99 93 C-95.89957603 93.2373992 -92.82487704 93.25467105 -89.71655273 93.22705078 C-88.83741714 93.22734283 -87.95828156 93.22763489 -87.05250549 93.22793579 C-84.17943049 93.22655506 -81.30662281 93.21105372 -78.43359375 93.1953125 C-76.42863608 93.19157789 -74.42367658 93.18873304 -72.41871643 93.18673706 C-67.16623816 93.17913587 -61.91387219 93.15951784 -56.66143799 93.1373291 C-51.29188556 93.11679466 -45.92231483 93.10771915 -40.55273438 93.09765625 C-30.03510717 93.0762684 -19.51756296 93.04217526 -9 93 C-8.96932496 90.95973139 -8.9476698 88.9193262 -8.9296875 86.87890625 C-8.91663574 85.74267822 -8.90358398 84.6064502 -8.89013672 83.43579102 C-9.41810108 66.92458542 -18.69567504 52.78571671 -30.3125 41.6875 C-38.73232779 34.51398063 -49.81174035 30.44400806 -60.91796875 30.81640625 C-76.86875516 32.22294839 -89.86113891 39.35477935 -100.15234375 51.5078125 Z " fill="#EBE1D7" transform="translate(4959,619)"/>
<path d="M0 0 C1.02609375 0.45117188 2.0521875 0.90234375 3.109375 1.3671875 C19.39214798 8.99166056 33.54482884 20.61641489 43 36 C43.63550781 37.02996094 44.27101563 38.05992187 44.92578125 39.12109375 C61.62655741 67.56702288 65.04627478 102.38171905 65.00750732 134.7348175 C65.00642345 135.90747823 65.00533958 137.08013895 65.00422287 138.28833485 C65.00282932 139.18318435 65.00143578 140.07803385 65 141 C64.26414736 141.00331015 63.52829472 141.00662029 62.77014351 141.01003075 C44.78820031 141.09158061 26.80633974 141.18377486 8.82451057 141.28752708 C0.12830452 141.3374514 -8.56789305 141.38389492 -17.26416016 141.421875 C-24.85202125 141.45502335 -32.43981229 141.49497676 -40.02759564 141.54279006 C-44.03781147 141.56783045 -48.0479822 141.5896752 -52.05825424 141.60334396 C-72.01625686 141.56534606 -72.01625686 141.56534606 -91.91845703 142.83837891 C-92.97577687 142.94114167 -92.97577687 142.94114167 -94.05445671 143.04598045 C-96.7930259 143.38923613 -98.69072799 143.77070867 -100.9291687 145.43026733 C-103.36934701 149.00732715 -101.73163523 153.99871214 -101 158 C-97.64764428 171.9349273 -89.8245603 184.37667071 -77.6640625 192.23046875 C-67.56239021 198.36269748 -58.39776747 201.53316825 -46.5 201.375 C-45.62730469 201.38660156 -44.75460938 201.39820313 -43.85546875 201.41015625 C-33.33857329 201.36341449 -23.52257735 198.47028021 -15.9375 190.95703125 C-12.12801088 186.76515023 -8.66797937 182.36658227 -5.421875 177.7265625 C-2.4434684 174.10992591 -0.86407104 173.08700419 3.95703125 172.6015625 C5.57549005 172.5888866 7.19421405 172.59816458 8.8125 172.625 C9.68326172 172.63297607 10.55402344 172.64095215 11.45117188 172.64916992 C26.74398756 172.97025402 46.78413204 173.53431945 60 182 C59.75693126 196.82719339 47.39331952 208.39306932 37.56640625 218.50390625 C12.8222349 241.82935614 -16.60623925 251.49897399 -50.15234375 251.15234375 C-83.50475843 249.83179129 -115.00137571 241.34806567 -138.4921875 216.34765625 C-162.86258782 187.63443373 -168.24056205 155.09946623 -168.1875 118.3125 C-168.18656342 117.47305847 -168.18562683 116.63361694 -168.18466187 115.76873779 C-168.10728087 83.78942319 -162.23742086 55.82132461 -142 30 C-141.58137695 29.45939941 -141.16275391 28.91879883 -140.73144531 28.36181641 C-123.04527138 5.7263981 -98.35329682 -7.56248263 -69.875 -11.25 C-45.87597586 -14.00926917 -21.97403792 -9.80455952 0 0 Z M-88.55859375 53.99609375 C-96.80968478 64.14823616 -102.9596867 78.62314258 -102 92 C-99.47106956 95.79339567 -96.59012402 96.58732726 -92.26376343 97.60100937 C-88.42065068 98.27836194 -84.63099156 98.26109635 -80.73828125 98.22705078 C-79.84953812 98.22734283 -78.96079498 98.22763489 -78.04512024 98.22793579 C-75.13414433 98.22655258 -72.22343069 98.21103925 -69.3125 98.1953125 C-67.28369283 98.19157878 -65.25488384 98.1887335 -63.22607422 98.18673706 C-57.90617833 98.17912889 -52.58639298 98.15950473 -47.26654053 98.1373291 C-41.83005264 98.11680984 -36.39354676 98.10772237 -30.95703125 98.09765625 C-20.30463914 98.07625607 -9.65232879 98.04215432 1 98 C1.01363675 96.27476203 1.02325932 94.54949211 1.03125 92.82421875 C1.03995117 91.38308716 1.03995117 91.38308716 1.04882812 89.9128418 C0.79935301 75.03040356 -6.71449525 60.57015894 -17 50 C-26.23074758 41.16038579 -37.55120725 35.52059672 -50.55078125 35.79296875 C-65.789677 37.08110507 -78.09843806 42.80509749 -88.55859375 53.99609375 Z " fill="#EBE1D7" transform="translate(2295,614)"/>
<path d="M0 0 C18.80150534 16.13200003 21.36735816 40.6583255 23.27963257 64.1109314 C24.29042354 77.81635315 24.77276213 91.53257304 25.0703125 105.26953125 C25.09136992 106.21420446 25.11242733 107.15887768 25.13412285 108.13217735 C25.68539036 133.53250778 25.62702864 158.93463992 25.5803833 184.33953857 C25.5680499 191.80368767 25.56371152 199.26784576 25.55792999 206.73200226 C25.54843026 217.90729008 25.52919531 229.08252158 25.51171875 240.2578125 C3.07171875 240.2578125 -19.36828125 240.2578125 -42.48828125 240.2578125 C-42.98983012 206.99437493 -42.98983012 206.99437493 -43.19921875 192.67578125 C-43.34185082 182.92460733 -43.48516105 173.1734479 -43.63378906 163.42236328 C-44.2232473 124.6974894 -44.65886277 85.98834735 -44.48828125 47.2578125 C-45.09406006 46.97333252 -45.69983887 46.68885254 -46.32397461 46.39575195 C-49.3008528 44.83058227 -51.53870086 42.67641452 -54.05078125 40.4453125 C-65.6207005 30.48247562 -77.32739231 28.46872082 -92.23486328 29.07861328 C-103.75831588 29.99499619 -116.34620711 36.11573836 -124.48828125 44.2578125 C-136.91148409 59.30794809 -137.68433926 77.11442813 -138.546875 95.83984375 C-138.58783232 96.68753641 -138.62878963 97.53522907 -138.67098808 98.40860939 C-139.75886854 121.12581322 -140.1135353 143.86228546 -140.4944458 166.60009766 C-140.64462385 175.51771237 -140.80404211 184.43515782 -140.96691704 193.3525486 C-141.02136678 196.40350338 -141.07164771 199.45450374 -141.12135315 202.50553894 C-141.15506188 204.41604862 -141.18890435 206.32655595 -141.22290039 208.23706055 C-141.24084656 209.44618355 -141.24084656 209.44618355 -141.25915527 210.67973328 C-141.4433764 220.55558494 -142.01783159 230.37836962 -142.48828125 240.2578125 C-163.27828125 240.2578125 -184.06828125 240.2578125 -205.48828125 240.2578125 C-205.48828125 154.7878125 -205.48828125 69.3178125 -205.48828125 -18.7421875 C-185.68828125 -18.7421875 -165.88828125 -18.7421875 -145.48828125 -18.7421875 C-145.15828125 -10.1621875 -144.82828125 -1.5821875 -144.48828125 7.2578125 C-143.82828125 9.2378125 -143.16828125 11.2178125 -142.48828125 13.2578125 C-140.61774728 13.12746756 -140.61774728 13.12746756 -138.48828125 12.2578125 C-137.91722656 11.51273438 -137.34617188 10.76765625 -136.7578125 10 C-134.16715415 6.86980695 -131.29623998 4.76403355 -127.92578125 2.5703125 C-127.27665771 2.14459961 -126.62753418 1.71888672 -125.95874023 1.28027344 C-87.23752028 -23.59401562 -38.30949909 -31.1326126 0 0 Z " fill="#EBE1D7" transform="translate(4246.48828125,622.7421875)"/>
<path d="M0 0 C0.81210937 0.72123047 0.81210937 0.72123047 1.640625 1.45703125 C2.45273437 2.13185547 2.45273437 2.13185547 3.28125 2.8203125 C12.23412357 10.91555099 18.81204572 22.31125054 24.265625 32.95703125 C24.59618896 33.5905249 24.92675293 34.22401855 25.26733398 34.87670898 C27.51944359 39.47192862 28.22906106 43.42927712 28.640625 48.45703125 C16.74388574 53.94783399 3.28109045 54.71318292 -9.609375 56.20703125 C-10.78790039 56.34689453 -11.96642578 56.48675781 -13.18066406 56.63085938 C-14.85467285 56.81551758 -14.85467285 56.81551758 -16.5625 57.00390625 C-17.55926758 57.11573242 -18.55603516 57.22755859 -19.58300781 57.34277344 C-23.21353873 57.49218326 -26.19004988 57.34561532 -29.1328125 55.109375 C-29.66132813 54.54347656 -30.18984375 53.97757813 -30.734375 53.39453125 C-31.32992187 52.76417969 -31.92546875 52.13382813 -32.5390625 51.484375 C-34.92384997 48.82835634 -37.26830774 46.13933708 -39.60546875 43.44140625 C-47.32400732 34.70862765 -54.31731005 29.01272949 -66.33422852 28.18237305 C-67.71880074 28.16272555 -69.1035708 28.1544448 -70.48828125 28.15625 C-71.61652565 28.14982231 -71.61652565 28.14982231 -72.76756287 28.14326477 C-74.35162356 28.13755857 -75.93571043 28.13699361 -77.51977539 28.14135742 C-79.8919181 28.14449167 -82.26277882 28.1211023 -84.63476562 28.09570312 C-96.93690041 28.04477373 -110.83548661 28.37364483 -121.359375 35.45703125 C-124.37901646 39.51467446 -124.89348693 43.34411776 -124.7109375 48.28125 C-123.78937838 53.98467699 -119.76579939 57.20526481 -115.359375 60.45703125 C-101.76953349 68.05720893 -86.30679939 71.16174288 -71.34405518 74.953125 C-0.5301049 92.93264259 -0.5301049 92.93264259 20.640625 111.45703125 C21.32125 112.0396875 22.001875 112.62234375 22.703125 113.22265625 C33.05925421 122.77529268 37.63156514 136.34660608 38.55078125 150.1796875 C38.58042969 150.93121094 38.61007812 151.68273437 38.640625 152.45703125 C38.68058594 153.15699219 38.72054687 153.85695313 38.76171875 154.578125 C39.4131039 175.4607666 31.57336677 195.02808663 17.64453125 210.38671875 C-4.8293816 233.97145348 -39.01288359 240.64967481 -70.359375 241.45703125 C-71.35582031 241.49699219 -72.35226562 241.53695313 -73.37890625 241.578125 C-105.62394724 242.29655973 -139.00001164 237.25790707 -163.13647461 214.51831055 C-164.54757644 213.16816645 -165.95361112 211.81273232 -167.359375 210.45703125 C-168.43832031 209.47283203 -168.43832031 209.47283203 -169.5390625 208.46875 C-182.27587095 196.52479508 -193.32628119 178.45796952 -197.359375 161.45703125 C-189.64059736 160.40928959 -181.92125186 159.36584583 -174.20116234 158.32781982 C-170.61608008 157.84564165 -167.03120678 157.36200931 -163.44677734 156.875 C-159.98483297 156.40468785 -156.52238436 155.93826576 -153.05955887 155.4744873 C-151.10171209 155.21125295 -149.14440188 154.94403763 -147.18710327 154.67675781 C-145.98631134 154.5165918 -144.78551941 154.35642578 -143.54833984 154.19140625 C-142.49576996 154.04928711 -141.44320007 153.90716797 -140.35873413 153.76074219 C-137.33693347 153.45475885 -134.39438849 153.40372384 -131.359375 153.45703125 C-130.92367187 154.43542969 -130.48796875 155.41382813 -130.0390625 156.421875 C-123.38300502 171.16647291 -116.95320751 182.15534226 -101.359375 188.45703125 C-92.24401021 191.21620119 -83.4697937 191.97317793 -73.984375 191.89453125 C-72.71303711 191.88768311 -71.44169922 191.88083496 -70.13183594 191.8737793 C-57.15756587 191.65189036 -43.51404939 189.97627647 -33.5546875 180.79296875 C-29.38670124 176.26601716 -27.60854598 172.19791205 -27.046875 166.01953125 C-27.42408314 161.71935847 -28.096213 159.16038724 -30.359375 155.45703125 C-40.6710363 147.17003404 -56.3357718 144.51322611 -68.94058228 141.3215332 C-161.20995177 117.88020762 -161.20995177 117.88020762 -176.83203125 93.3203125 C-186.57005765 75.06462617 -189.77235002 54.42708456 -183.73828125 34.40234375 C-179.45890187 21.61200212 -173.05584306 11.75481927 -163.359375 2.45703125 C-162.65683594 1.76996094 -161.95429688 1.08289063 -161.23046875 0.375 C-124.84533828 -33.36393916 -37.27948521 -30.71505412 0 0 Z " fill="#EBE1D7" transform="translate(7676.359375,623.54296875)"/>
<path d="M0 0 C20.79 0 41.58 0 63 0 C63.13277344 9.74273438 63.26554687 19.48546875 63.40234375 29.5234375 C63.4887606 35.81250243 63.57525892 42.10156607 63.66210938 48.390625 C63.91785915 66.91205391 63.91785915 66.91205391 64.03719866 75.70901799 C64.0700069 78.12730586 64.10291768 80.54559231 64.13583946 82.96387863 C64.17942638 86.1664723 64.22257216 89.36907154 64.26548195 92.57167435 C64.37210908 100.47043615 64.48775027 108.36891604 64.6211853 116.26727295 C64.67238072 119.34581544 64.72287952 122.42436869 64.77294922 125.50292969 C64.79140463 126.62547409 64.79140463 126.62547409 64.81023288 127.77069616 C64.95507765 136.7866452 65.01291753 145.7934755 64.93351269 154.81057549 C64.89456989 159.49974038 64.89261563 164.18855382 64.89465523 168.87785721 C64.88431494 170.99444107 64.85458431 173.11103667 64.80360222 175.22703171 C64.18329335 186.3463302 64.18329335 186.3463302 68.40548706 196.17913818 C71.16913504 198.47269331 73.87289159 200.2503284 77 202 C78.14424057 202.91391726 79.27560082 203.84510521 80.375 204.8125 C91.47008687 212.33105299 106.14326879 212.65455418 118.91015625 210.26953125 C131.54552041 206.90101741 145.79593191 200.58710837 153.046875 189.046875 C164.14829333 165.20612416 160.00887364 129.3856346 160.44555664 103.7382431 C160.50201544 100.42873354 160.56213489 97.11930594 160.62304688 93.80987549 C160.7734023 85.60504851 160.91824234 77.40012659 161.0625 69.19519043 C161.18542004 62.21203594 161.31088365 55.2289361 161.43969727 48.24588776 C161.49806076 45.02876996 161.55283085 41.81160504 161.60742188 38.59442139 C161.64434564 36.57433742 161.68144641 34.55425668 161.71875 32.53417969 C161.73228516 31.6764798 161.74582031 30.81877991 161.75976562 29.93508911 C161.9527864 19.93942008 162.52380542 10.00008624 163 0 C183.79 0 204.58 0 226 0 C226 85.47 226 170.94 226 259 C206.2 259 186.4 259 166 259 C166 247.12 166 235.24 166 223 C158.17408858 229.37249741 158.17408858 229.37249741 150.625 236.0625 C128.87412038 255.49945626 99.47284109 262.53298392 71 261 C50.472121 259.01472049 30.77056216 250.59598478 17 235 C0.93234097 214.83211242 -0.16751512 191.36670577 -0.11352539 166.65527344 C-0.11324281 164.83086651 -0.11340264 163.00645947 -0.1139679 161.18205261 C-0.1142531 156.26348848 -0.10840124 151.34494907 -0.10139394 146.42639065 C-0.0951142 141.27345851 -0.09455296 136.12052571 -0.09336853 130.96759033 C-0.09026878 121.22505194 -0.08207378 111.48252486 -0.07201904 101.73999143 C-0.06081565 90.64198146 -0.05533683 79.54397093 -0.05032361 68.44595671 C-0.03988995 45.6306301 -0.02156144 22.81531899 0 0 Z " fill="#EBE1D7" transform="translate(2971,604)"/>
<path d="M0 0 C91.08 0 182.16 0 276 0 C276 19.47 276 38.94 276 59 C241.68 59 207.36 59 172 59 C172 156.68 172 254.36 172 355 C149.56 355 127.12 355 104 355 C104 257.32 104 159.64 104 59 C69.68 59 35.36 59 0 59 C0 39.53 0 20.06 0 0 Z " fill="#EBE1D7" transform="translate(1483,508)"/>
<path d="M0 0 C91.08 0 182.16 0 276 0 C276 19.47 276 38.94 276 59 C241.68 59 207.36 59 172 59 C172 156.68 172 254.36 172 355 C149.89 355 127.78 355 105 355 C105 257.32 105 159.64 105 59 C70.35 59 35.7 59 0 59 C0 39.53 0 20.06 0 0 Z " fill="#EBE1D7" transform="translate(4491,508)"/>
<path d="M0 0 C1.01707031 0.56589844 2.03414062 1.13179687 3.08203125 1.71484375 C21.77706643 12.82727725 31.73945256 32.06583091 41 51 C41.4228125 51.86367188 41.845625 52.72734375 42.28125 53.6171875 C43.23869171 56.7913149 43.12914455 59.70681409 43 63 C29.33538158 65.40093765 15.67822303 67.37713066 1.875 68.75 C0.60188965 68.87737549 -0.6712207 69.00475098 -1.98291016 69.13598633 C-7.67541956 69.67934492 -13.28070197 70.16971211 -19 70 C-19.43570313 69.03320312 -19.87140625 68.06640625 -20.3203125 67.0703125 C-26.73885206 52.22107349 -26.73885206 52.22107349 -37 40 C-37.825 39.29875 -38.65 38.5975 -39.5 37.875 C-53.87392239 30.17468444 -72.7875275 31.63345697 -88 36 C-98.0277206 39.59689978 -105.31398241 46.48932922 -110.4921875 55.7421875 C-124.78556467 86.62476927 -126.78661766 125.09632083 -115.44140625 157.28515625 C-109.8765559 171.62708763 -101.74533441 187.03005401 -87.1340332 193.87402344 C-80.51397191 196.42455429 -74.08485754 196.44777054 -67.0625 196.375 C-65.94681641 196.38660156 -64.83113281 196.39820313 -63.68164062 196.41015625 C-51.55404613 196.3675285 -40.60285342 193.2216488 -31.375 185.0625 C-23.73170864 176.87073171 -20.20161141 165.37803942 -16.9453125 154.88671875 C-16 152 -16 152 -15 151 C-12.36376669 151.04155922 -9.76619505 151.1514806 -7.13671875 151.31640625 C-5.93011848 151.38837975 -5.93011848 151.38837975 -4.69914246 151.46180725 C3.48400569 151.98025072 11.63195545 152.77923565 19.78149414 153.67456055 C22.2239797 153.94148667 24.66752478 154.19662419 27.11132812 154.45117188 C28.6927838 154.62169741 30.2741671 154.7928958 31.85546875 154.96484375 C32.57220261 155.03887924 33.28893646 155.11291473 34.02738953 155.18919373 C38.55885596 155.69874077 42.66710395 156.64506369 47 158 C48.90952939 174.42195279 33.57002306 196.9228251 23.75488281 209.609375 C5.33252947 232.35232611 -22.36544919 242.10626594 -50.6484375 245.49609375 C-84.54000029 248.99382147 -121.39115681 241.97498279 -148.42285156 220.30761719 C-171.21796225 201.40814151 -184.82050419 172.073072 -188 143 C-191.91954279 99.12216531 -188.86160728 56.25601962 -159.67578125 21.11328125 C-121.29257222 -23.91448471 -49.61300106 -28.07143762 0 0 Z " fill="#EBE1D7" transform="translate(5270,619)"/>
<path d="M0 0 C1.2354928 8.94714019 1.32599748 17.92604919 1.53515625 26.94140625 C1.5782303 28.67733079 1.62164701 30.41324685 1.66539001 32.14915466 C1.77893517 36.69129718 1.88786056 41.23353888 1.99578857 45.77581787 C2.12660079 51.24013033 2.26321359 56.70430054 2.39884186 62.16849518 C2.6036456 70.44556353 2.80113041 78.72277736 3 87 C17.85 87 32.7 87 48 87 C48 103.83 48 120.66 48 138 C32.82 138 17.64 138 2 138 C2.14966208 156.58499393 2.14966208 156.58499393 2.30664062 175.16992188 C2.37245424 182.77040984 2.43748425 190.37089782 2.49731445 197.97143555 C2.54570548 204.11179415 2.5980551 210.25210832 2.65294075 216.39241219 C2.67303209 218.71345956 2.69179127 221.03451893 2.70907402 223.35558891 C2.79999278 235.44389731 2.99616998 247.51785073 3.46899414 259.59790039 C3.50859725 260.61862105 3.54820036 261.63934172 3.58900356 262.69099331 C3.92025459 279.59258669 3.92025459 279.59258669 10 295 C14.28447765 298.80842458 19.89525331 299.08064277 25.44384766 298.93652344 C28.91400645 298.71341794 32.37795572 298.44648294 35.84179688 298.140625 C39.57946336 297.87992347 42.39041849 297.79734018 45.97265625 298.98828125 C48.85798211 301.85136953 49.48636607 304.95176433 50.25 308.8125 C50.41129395 309.56644043 50.57258789 310.32038086 50.73876953 311.09716797 C54.84932109 331.30135781 54.84932109 331.30135781 51 339 C41.0848154 348.64720664 19.09756528 348.02099654 5.9375 348.25 C-13.08025803 347.89452789 -31.22524078 345.52212526 -45.9375 332.375 C-65.41928395 309.9414306 -61.15541083 274.25821543 -61.10139394 246.4100883 C-61.09506617 242.58781157 -61.09454925 238.76553372 -61.09336853 234.94325256 C-61.09028262 227.73312036 -61.08210686 220.52300363 -61.07201904 213.31287819 C-61.06077192 205.09256997 -61.05532596 196.87226093 -61.05032361 188.6519469 C-61.03992139 171.76795415 -61.02161075 154.88398269 -61 138 C-72.22 138 -83.44 138 -95 138 C-95 121.17 -95 104.34 -95 87 C-83.78 87 -72.56 87 -61 87 C-61.2784375 83.56464844 -61.556875 80.12929688 -61.84375 76.58984375 C-64.12999609 40.90594509 -64.12999609 40.90594509 -58.95068359 33.35302734 C-53.62938962 28.10296095 -47.17030007 25.58095333 -40.18505859 23.19091797 C-35.32191438 21.37255085 -31.27235839 18.59166298 -27 15.6875 C-25.48411557 14.72211419 -23.96463964 13.76234183 -22.44140625 12.80859375 C-19.40397812 10.88968932 -16.37110074 8.96379113 -13.33984375 7.03515625 C-11.87250605 6.10659665 -10.40506292 5.17820361 -8.9375 4.25 C-8.26396484 3.81905029 -7.59042969 3.38810059 -6.89648438 2.9440918 C-2.22692423 0 -2.22692423 0 0 0 Z " fill="#EBE1D7" transform="translate(6936,517)"/>
<path d="M0 0 C20.79 0 41.58 0 63 0 C63 117.15 63 234.3 63 355 C42.21 355 21.42 355 0 355 C0 237.85 0 120.7 0 0 Z " fill="#EBE1D7" transform="translate(7346,508)"/>
<path d="M0 0 C21.12 0 42.24 0 64 0 C64 85.47 64 170.94 64 259 C42.88 259 21.76 259 0 259 C0 173.53 0 88.06 0 0 Z " fill="#EBE1D7" transform="translate(6712,604)"/>
<path d="M0 0 C21.12 0 42.24 0 64 0 C64 85.47 64 170.94 64 259 C42.88 259 21.76 259 0 259 C0 173.53 0 88.06 0 0 Z " fill="#EBE1D7" transform="translate(6237,604)"/>
<path d="M0 0 C21.12 0 42.24 0 64 0 C64 19.47 64 38.94 64 59 C42.88 59 21.76 59 0 59 C0 39.53 0 20.06 0 0 Z " fill="#EBE1D7" transform="translate(6712,508)"/>
<path d="M0 0 C21.12 0 42.24 0 64 0 C64 19.47 64 38.94 64 59 C42.88 59 21.76 59 0 59 C0 39.53 0 20.06 0 0 Z " fill="#EBE1D7" transform="translate(6237,508)"/>
</svg>
